CossetteTitre-Regular.ufo
<glyph name="exclam" format="2">
  <advance width="190"/>
  <unicode hex="0021"/>
  <outline>
    <contour>
      <point x="60" y="220" type="line"/>
      <point x="130" y="220" type="line"/>
      <point x="140" y="800" type="line"/>
      <point x="50" y="800" type="line"/>
    </contour>
    <contour>
      <point x="50" y="0" type="line"/>
      <point x="140" y="0" type="line"/>
      <point x="140" y="120" type="line"/>
      <point x="50" y="120" type="line"/>
    </contour>
  </outline>
</glyph>
<glyph name="parenleft" format="2">
  <advance width="250"/>
  <unicode hex="0028"/>
  <outline>
    <contour>
      <point x="130.0" y="300.0" type="curve" smooth="yes"/>
      <point x="130.0" y="450.0"/>
      <point x="170.0" y="600.0"/>
      <point x="250.0" y="750.0" type="curve"/>
      <point x="170.0" y="750.0" type="line"/>
      <point x="90.0" y="600.0"/>
      <point x="50.0" y="450.0"/>
      <point x="50.0" y="300.0" type="curve" smooth="yes"/>
      <point x="50.0" y="150.0"/>
      <point x="90.0" y="0.0"/>
      <point x="170.0" y="-150.0" type="curve"/>
      <point x="250.0" y="-150.0" type="line"/>
      <point x="170.0" y="0.0"/>
      <point x="130.0" y="150.0"/>
    </contour>
  </outline>
</glyph>
<glyph name="asterisk" format="2">
  <advance width="450"/>
  <unicode hex="002A"/>
  <outline>
    <contour>
      <point x="200" y="600" type="line"/>
      <point x="225" y="585" type="line"/>
      <point x="250" y="600" type="line"/>
      <point x="265" y="800" type="line"/>
      <point x="185" y="800" type="line"/>
    </contour>
    <contour>
      <point x="245" y="560" type="line"/>
      <point x="225" y="585" type="line"/>
      <point x="205" y="590" type="line"/>
      <point x="75" y="437" type="line"/>
      <point x="140" y="390" type="line"/>
    </contour>
    <contour>
      <point x="205" y="560" type="line"/>
      <point x="310" y="390" type="line"/>
      <point x="375" y="437" type="line"/>
      <point x="245" y="590" type="line"/>
      <point x="225" y="585" type="line"/>
    </contour>
    <contour>
      <point x="217" y="561" type="line"/>
      <point x="225" y="585" type="line"/>
      <point x="233" y="609" type="line"/>
      <point x="47" y="685" type="line"/>
      <point x="23" y="609" type="line"/>
    </contour>
    <contour>
      <point x="233" y="561" type="line"/>
      <point x="427" y="609" type="line"/>
      <point x="403" y="685" type="line"/>
      <point x="217" y="609" type="line"/>
      <point x="225" y="585" type="line"/>
    </contour>
  </outline>
</glyph>
<glyph name="plus" format="2">
  <advance width="450"/>
  <unicode hex="002B"/>
  <outline>
    <contour>
      <point x="415" y="395" type="line"/>
      <point x="35" y="395" type="line"/>
      <point x="35" y="305" type="line"/>
      <point x="415" y="305" type="line"/>
    </contour>
    <contour>
      <point x="190" y="100" type="line"/>
      <point x="260" y="100" type="line"/>
      <point x="260" y="600" type="line"/>
      <point x="190" y="600" type="line"/>
    </contour>
  </outline>
</glyph>
<glyph name="hyphen" format="2">
  <advance width="250"/>
  <unicode hex="002D"/>
  <outline>
    <contour>
      <point x="205.0" y="350.0" type="line"/>
      <point x="45.0" y="350.0" type="line"/>
      <point x="45.0" y="250.0" type="line"/>
      <point x="205.0" y="250.0" type="line"/>
    </contour>
  </outline>
</glyph>
<glyph name="four" format="2">
  <advance width="450"/>
  <unicode hex="0034"/>
  <outline>
    <contour>
      <point x="20" y="180" type="line"/>
      <point x="430" y="180" type="line"/>
      <point x="430" y="280" type="line"/>
      <point x="60" y="280" type="line"/>
      <point x="80" y="250" type="line"/>
      <point x="280" y="750" type="line"/>
      <point x="260" y="750" type="line"/>
      <point x="260" y="0" type="line"/>
      <point x="340" y="0" type="line"/>
      <point x="340" y="800" type="line"/>
      <point x="220" y="800" type="line"/>
      <point x="20" y="300" type="line"/>
    </contour>
    <contour>
      <point x="240" y="690" type="line"/>
      <point x="280" y="690" type="line"/>
      <point x="280" y="710" type="line"/>
      <point x="240" y="710" type="line"/>
    </contour>
  </outline>
</glyph>
<glyph name="seven" format="2">
  <advance width="410"/>
  <unicode hex="0037"/>
  <outline>
    <contour>
      <point x="110" y="0" type="curve"/>
      <point x="200" y="0" type="line"/>
      <point x="200" y="260"/>
      <point x="250" y="500"/>
      <point x="390" y="700" type="curve"/>
      <point x="390" y="800" type="line"/>
      <point x="20" y="800" type="line"/>
      <point x="20" y="700" type="line"/>
      <point x="360" y="700" type="line"/>
      <point x="320" y="700" type="line"/>
      <point x="180" y="500"/>
      <point x="110" y="260"/>
    </contour>
  </outline>
</glyph>
<glyph name="semicolon" format="2">
  <advance width="180"/>
  <unicode hex="003B"/>
  <outline>
    <contour>
      <point x="45" y="480" type="line"/>
      <point x="135" y="480" type="line"/>
      <point x="135" y="600" type="line"/>
      <point x="45" y="600" type="line"/>
    </contour>
    <contour>
      <point x="45" y="0" type="line"/>
      <point x="90" y="0" type="line"/>
      <point x="90" y="-30" type="line" smooth="yes"/>
      <point x="90" y="-70"/>
      <point x="75" y="-90"/>
      <point x="45" y="-90" type="curve"/>
      <point x="45" y="-150" type="line"/>
      <point x="105" y="-150"/>
      <point x="135" y="-110"/>
      <point x="135" y="-30" type="curve" smooth="yes"/>
      <point x="135" y="120" type="line"/>
      <point x="45" y="120" type="line"/>
    </contour>
  </outline>
</glyph>
<glyph name="less" format="2">
  <advance width="450"/>
  <unicode hex="003C"/>
  <outline>
    <contour>
      <point x="405" y="570" type="line"/>
      <point x="45" y="400" type="line"/>
      <point x="45" y="321" type="line"/>
      <point x="405" y="481" type="line"/>
    </contour>
    <contour>
      <point x="405" y="221" type="line"/>
      <point x="45" y="381" type="line"/>
      <point x="45" y="300" type="line"/>
      <point x="405" y="130" type="line"/>
    </contour>
  </outline>
</glyph>
<glyph name="at" format="2">
  <advance width="600"/>
  <unicode hex="0040"/>
  <outline>
    <contour>
      <point x="560" y="300" type="curve" smooth="yes"/>
      <point x="560" y="546"/>
      <point x="456" y="710"/>
      <point x="300" y="710" type="curve" smooth="yes"/>
      <point x="144" y="710"/>
      <point x="40" y="546"/>
      <point x="40" y="300" type="curve" smooth="yes"/>
      <point x="40" y="54"/>
      <point x="144" y="-100"/>
      <point x="300" y="-100" type="curve" smooth="yes"/>
      <point x="360" y="-100" type="line"/>
      <point x="360" y="-20" type="line"/>
      <point x="300" y="-20" type="line" smooth="yes"/>
      <point x="180" y="-20"/>
      <point x="100" y="102"/>
      <point x="100" y="300" type="curve" smooth="yes"/>
      <point x="100" y="498"/>
      <point x="180" y="630"/>
      <point x="300" y="630" type="curve" smooth="yes"/>
      <point x="420" y="630"/>
      <point x="500" y="498"/>
      <point x="500" y="300" type="curve" smooth="yes"/>
      <point x="500" y="200"/>
      <point x="475" y="140"/>
      <point x="445" y="140" type="curve" smooth="yes"/>
      <point x="425" y="140"/>
      <point x="414" y="160"/>
      <point x="414" y="200" type="curve" smooth="yes"/>
      <point x="414" y="520" type="line"/>
      <point x="354" y="520" type="line"/>
      <point x="354" y="200" type="line" smooth="yes"/>
      <point x="354" y="116"/>
      <point x="390" y="60"/>
      <point x="440" y="60" type="curve" smooth="yes"/>
      <point x="510" y="60"/>
      <point x="560" y="160"/>
    </contour>
    <contour>
      <point x="290" y="150" type="curve" smooth="yes"/>
      <point x="250" y="150"/>
      <point x="226" y="207"/>
      <point x="226" y="300" type="curve" smooth="yes"/>
      <point x="226" y="393"/>
      <point x="250" y="450"/>
      <point x="290" y="450" type="curve" smooth="yes"/>
      <point x="330" y="450"/>
      <point x="354" y="393"/>
      <point x="354" y="300" type="curve" smooth="yes"/>
      <point x="354" y="207"/>
      <point x="330" y="150"/>
    </contour>
    <contour>
      <point x="280" y="530" type="curve" smooth="yes"/>
      <point x="212" y="530"/>
      <point x="166" y="444"/>
      <point x="166" y="300" type="curve" smooth="yes"/>
      <point x="166" y="156"/>
      <point x="212" y="70"/>
      <point x="280" y="70" type="curve" smooth="yes"/>
      <point x="348" y="70"/>
      <point x="394" y="156"/>
      <point x="394" y="300" type="curve" smooth="yes"/>
      <point x="394" y="444"/>
      <point x="348" y="530"/>
    </contour>
  </outline>
</glyph>
<glyph name="A" format="2">
  <advance width="480"/>
  <unicode hex="0041"/>
  <anchor x="240" y="800" name="top"/>
  <anchor x="480" y="0" name="ogonek"/>
  <outline>
    <contour>
      <point x="0" y="0" type="line"/>
      <point x="80" y="0" type="line"/>
      <point x="217" y="600" type="line"/>
      <point x="235" y="680" type="line"/>
      <point x="241" y="680" type="line"/>
      <point x="259" y="600" type="line"/>
      <point x="396" y="0" type="line"/>
      <point x="480" y="0" type="line"/>
      <point x="292" y="800" type="line"/>
      <point x="188" y="800" type="line"/>
    </contour>
    <contour>
      <point x="115" y="220" type="line"/>
      <point x="365" y="220" type="line"/>
      <point x="365" y="320" type="line"/>
      <point x="115" y="320" type="line"/>
    </contour>
  </outline>
</glyph>
<glyph name="B" format="2">
  <advance width="450"/>
  <unicode hex="0042"/>
  <outline>
    <contour>
      <point x="215" y="460" type="curve" smooth="yes"/>
      <point x="140" y="460" type="line"/>
      <point x="140" y="700" type="line"/>
      <point x="215" y="700" type="line" smooth="yes"/>
      <point x="305" y="700"/>
      <point x="345" y="660"/>
      <point x="345" y="580" type="curve" smooth="yes"/>
      <point x="345" y="500"/>
      <point x="305" y="460"/>
    </contour>
    <contour>
      <point x="215" y="100" type="curve" smooth="yes"/>
      <point x="140" y="100" type="line"/>
      <point x="140" y="360" type="line"/>
      <point x="215" y="360" type="line" smooth="yes"/>
      <point x="300" y="360"/>
      <point x="355" y="315"/>
      <point x="355" y="230" type="curve" smooth="yes"/>
      <point x="355" y="145"/>
      <point x="300" y="100"/>
    </contour>
    <contour>
      <point x="215" y="380" type="line"/>
      <point x="345" y="380"/>
      <point x="420" y="460"/>
      <point x="420" y="590" type="curve" smooth="yes"/>
      <point x="420" y="720"/>
      <point x="345" y="800"/>
      <point x="215" y="800" type="curve" smooth="yes"/>
      <point x="60" y="800" type="line"/>
      <point x="60" y="0" type="line"/>
      <point x="215" y="0" type="line" smooth="yes"/>
      <point x="355" y="0"/>
      <point x="430" y="80"/>
      <point x="430" y="220" type="curve" smooth="yes"/>
      <point x="430" y="360"/>
      <point x="355" y="440"/>
      <point x="215" y="440" type="curve"/>
    </contour>
  </outline>
</glyph>
<glyph name="D" format="2">
  <advance width="495"/>
  <unicode hex="0044"/>
  <anchor x="200" y="800" name="top"/>
  <outline>
    <contour>
      <point x="215" y="0" type="line" smooth="yes"/>
      <point x="369" y="0"/>
      <point x="460" y="144"/>
      <point x="460" y="400" type="curve" smooth="yes"/>
      <point x="460" y="656"/>
      <point x="369" y="800"/>
      <point x="215" y="800" type="curve" smooth="yes"/>
      <point x="60" y="800" type="line"/>
      <point x="60" y="0" type="line"/>
    </contour>
    <contour>
      <point x="215" y="100" type="curve" smooth="yes"/>
      <point x="140" y="100" type="line"/>
      <point x="140" y="700" type="line"/>
      <point x="215" y="700" type="line" smooth="yes"/>
      <point x="320" y="700"/>
      <point x="385" y="594"/>
      <point x="385" y="400" type="curve" smooth="yes"/>
      <point x="385" y="206"/>
      <point x="320" y="100"/>
    </contour>
  </outline>
</glyph>
<glyph name="E" format="2">
  <advance width="440"/>
  <unicode hex="0045"/>
  <anchor x="230" y="800" name="top"/>
  <anchor x="410" y="0" name="ogonek"/>
  <outline>
    <contour>
      <point x="60" y="0" type="line"/>
      <point x="410" y="0" type="line"/>
      <point x="410" y="100" type="line"/>
      <point x="140" y="100" type="line"/>
      <point x="140" y="360" type="line"/>
      <point x="380" y="360" type="line"/>
      <point x="380" y="460" type="line"/>
      <point x="140" y="460" type="line"/>
      <point x="140" y="700" type="line"/>
      <point x="400" y="700" type="line"/>
      <point x="400" y="800" type="line"/>
      <point x="60" y="800" type="line"/>
    </contour>
  </outline>
</glyph>
<glyph name="F" format="2">
  <advance width="410"/>
  <unicode hex="0046"/>
  <outline>
    <contour>
      <point x="60" y="0" type="line"/>
      <point x="140" y="0" type="line"/>
      <point x="140" y="350" type="line"/>
      <point x="370" y="350" type="line"/>
      <point x="370" y="450" type="line"/>
      <point x="140" y="450" type="line"/>
      <point x="140" y="700" type="line"/>
      <point x="390" y="700" type="line"/>
      <point x="390" y="800" type="line"/>
      <point x="60" y="800" type="line"/>
    </contour>
  </outline>
</glyph>
<glyph name="I" format="2">
  <advance width="200"/>
  <unicode hex="0049"/>
  <anchor x="100" y="800" name="top"/>
  <anchor x="140" y="0" name="ogonek"/>
  <outline>
    <contour>
      <point x="60" y="0" type="line"/>
      <point x="140" y="0" type="line"/>
      <point x="140" y="800" type="line"/>
      <point x="60" y="800" type="line"/>
    </contour>
  </outline>
</glyph>
<glyph name="J" format="2">
  <advance width="410"/>
  <unicode hex="004A"/>
  <outline>
    <contour>
      <point x="20" y="220" type="line" smooth="yes"/>
      <point x="20" y="80"/>
      <point x="90" y="-10"/>
      <point x="190" y="-10" type="curve" smooth="yes"/>
      <point x="290" y="-10"/>
      <point x="360" y="80"/>
      <point x="360" y="220" type="curve" smooth="yes"/>
      <point x="360" y="800" type="line"/>
      <point x="280" y="800" type="line"/>
      <point x="280" y="220" type="line" smooth="yes"/>
      <point x="280" y="140"/>
      <point x="250" y="90"/>
      <point x="190" y="90" type="curve" smooth="yes"/>
      <point x="130" y="90"/>
      <point x="100" y="140"/>
      <point x="100" y="220" type="curve" smooth="yes"/>
      <point x="100" y="260" type="line"/>
      <point x="20" y="260" type="line"/>
    </contour>
  </outline>
</glyph>
<glyph name="K" format="2">
  <advance width="470"/>
  <unicode hex="004B"/>
  <anchor x="260" y="0" name="bottom"/>
  <outline>
    <contour>
      <point x="60" y="0" type="line"/>
      <point x="140" y="0" type="line"/>
      <point x="140" y="800" type="line"/>
      <point x="60" y="800" type="line"/>
    </contour>
    <contour>
      <point x="380" y="800" type="line"/>
      <point x="60" y="250" type="line"/>
      <point x="140" y="240" type="line"/>
      <point x="470" y="800" type="line"/>
    </contour>
    <contour>
      <point x="380" y="0" type="line"/>
      <point x="470" y="0" type="line"/>
      <point x="260" y="480" type="line"/>
      <point x="190" y="450" type="line"/>
    </contour>
  </outline>
</glyph>
<glyph name="L" format="2">
  <advance width="400"/>
  <unicode hex="004C"/>
  <anchor x="100" y="800" name="top"/>
  <anchor x="220" y="0" name="bottom"/>
  <anchor x="140" y="600" name="caron.alt"/>
  <outline>
    <contour>
      <point x="60" y="0" type="line"/>
      <point x="390" y="0" type="line"/>
      <point x="390" y="100" type="line"/>
      <point x="140" y="100" type="line"/>
      <point x="140" y="800" type="line"/>
      <point x="60" y="800" type="line"/>
    </contour>
  </outline>
</glyph>
<glyph name="M" format="2">
  <advance width="640"/>
  <unicode hex="004D"/>
  <outline>
    <contour>
      <point x="60" y="0" type="line"/>
      <point x="140" y="0" type="line"/>
      <point x="140" y="680" type="line"/>
      <point x="145" y="680" type="line"/>
      <point x="160" y="600" type="line"/>
      <point x="280" y="0" type="line"/>
      <point x="360" y="0" type="line"/>
      <point x="480" y="600" type="line"/>
      <point x="495" y="680" type="line"/>
      <point x="500" y="680" type="line"/>
      <point x="500" y="0" type="line"/>
      <point x="580" y="0" type="line"/>
      <point x="580" y="800" type="line"/>
      <point x="445" y="800" type="line"/>
      <point x="337" y="260" type="line"/>
      <point x="322" y="180" type="line"/>
      <point x="318" y="180" type="line"/>
      <point x="303" y="260" type="line"/>
      <point x="195" y="800" type="line"/>
      <point x="60" y="800" type="line"/>
    </contour>
  </outline>
</glyph>
<glyph name="P" format="2">
  <advance width="455"/>
  <unicode hex="0050"/>
  <outline>
    <contour>
      <point x="60" y="0" type="line"/>
      <point x="140" y="0" type="line"/>
      <point x="140" y="320" type="line"/>
      <point x="240" y="320" type="line" smooth="yes"/>
      <point x="380" y="320"/>
      <point x="435" y="420"/>
      <point x="435" y="560" type="curve" smooth="yes"/>
      <point x="435" y="700"/>
      <point x="380" y="800"/>
      <point x="240" y="800" type="curve" smooth="yes"/>
      <point x="60" y="800" type="line"/>
    </contour>
    <contour>
      <point x="140" y="420" type="line"/>
      <point x="140" y="700" type="line"/>
      <point x="240" y="700" type="line" smooth="yes"/>
      <point x="330" y="700"/>
      <point x="360" y="650"/>
      <point x="360" y="560" type="curve" smooth="yes"/>
      <point x="360" y="470"/>
      <point x="330" y="420"/>
      <point x="240" y="420" type="curve" smooth="yes"/>
    </contour>
  </outline>
</glyph>
<glyph name="Q" format="2">
  <advance width="520"/>
  <unicode hex="0051"/>
  <outline>
    <contour>
      <point x="430" y="0" type="line"/>
      <point x="525" y="0" type="line"/>
      <point x="305" y="330" type="line"/>
      <point x="210" y="330" type="line"/>
    </contour>
    <contour>
      <point x="35" y="400" type="curve" smooth="yes"/>
      <point x="35" y="144"/>
      <point x="120" y="-10"/>
      <point x="260" y="-10" type="curve" smooth="yes"/>
      <point x="400" y="-10"/>
      <point x="485" y="144"/>
      <point x="485" y="400" type="curve" smooth="yes"/>
      <point x="485" y="656"/>
      <point x="400" y="810"/>
      <point x="260" y="810" type="curve" smooth="yes"/>
      <point x="120" y="810"/>
      <point x="35" y="656"/>
    </contour>
    <contour>
      <point x="110" y="400" type="curve" smooth="yes"/>
      <point x="110" y="594"/>
      <point x="166" y="710"/>
      <point x="260" y="710" type="curve" smooth="yes"/>
      <point x="354" y="710"/>
      <point x="410" y="594"/>
      <point x="410" y="400" type="curve" smooth="yes"/>
      <point x="410" y="206"/>
      <point x="354" y="90"/>
      <point x="260" y="90" type="curve" smooth="yes"/>
      <point x="166" y="90"/>
      <point x="110" y="206"/>
    </contour>
  </outline>
</glyph>
<glyph name="T" format="2">
  <advance width="420"/>
  <unicode hex="0054"/>
  <anchor x="210" y="800" name="top"/>
  <anchor x="210" y="0" name="bottom"/>
  <outline>
    <contour>
      <point x="170" y="0" type="line"/>
      <point x="250" y="0" type="line"/>
      <point x="250" y="700" type="line"/>
      <point x="410" y="700" type="line"/>
      <point x="410" y="800" type="line"/>
      <point x="10" y="800" type="line"/>
      <point x="10" y="700" type="line"/>
      <point x="170" y="700" type="line"/>
    </contour>
  </outline>
</glyph>
<glyph name="V" format="2">
  <advance width="476"/>
  <unicode hex="0056"/>
  <outline>
    <contour>
      <point x="476" y="800" type="line"/>
      <point x="394" y="800" type="line"/>
      <point x="261" y="220" type="line"/>
      <point x="243" y="140" type="line"/>
      <point x="237" y="140" type="line"/>
      <point x="219" y="220" type="line"/>
      <point x="86" y="800" type="line"/>
      <point x="0" y="800" type="line"/>
      <point x="188" y="0" type="line"/>
      <point x="288" y="0" type="line"/>
    </contour>
  </outline>
</glyph>
<glyph name="X" format="2">
  <advance width="420"/>
  <unicode hex="0058"/>
  <outline>
    <contour>
      <point x="0" y="0" type="line"/>
      <point x="88" y="0" type="line"/>
      <point x="242" y="400" type="line"/>
      <point x="240" y="480" type="line"/>
      <point x="190" y="480" type="line"/>
    </contour>
    <contour>
      <point x="330" y="0" type="line"/>
      <point x="420" y="0" type="line"/>
      <point x="230" y="480" type="line"/>
      <point x="178" y="480" type="line"/>
      <point x="176" y="400" type="line"/>
    </contour>
    <contour>
      <point x="10" y="800" type="line"/>
      <point x="170" y="400" type="line"/>
      <point x="256" y="400" type="line"/>
      <point x="100" y="800" type="line"/>
    </contour>
    <contour>
      <point x="322" y="800" type="line"/>
      <point x="166" y="400" type="line"/>
      <point x="250" y="400" type="line"/>
      <point x="410" y="800" type="line"/>
    </contour>
    <contour>
      <point x="178" y="491" type="line"/>
      <point x="240" y="491" type="line"/>
      <point x="240" y="521" type="line"/>
      <point x="178" y="521" type="line"/>
    </contour>
    <contour>
      <point x="178" y="309" type="line"/>
      <point x="240" y="309" type="line"/>
      <point x="240" y="339" type="line"/>
      <point x="178" y="339" type="line"/>
    </contour>
  </outline>
</glyph>
<glyph name="Z" format="2">
  <advance width="420"/>
  <unicode hex="005A"/>
  <anchor x="215" y="800" name="top"/>
  <outline>
    <contour>
      <point x="30" y="0" type="line"/>
      <point x="390" y="0" type="line"/>
      <point x="390" y="100" type="line"/>
      <point x="118" y="100" type="line"/>
      <point x="390" y="710" type="line"/>
      <point x="390" y="800" type="line"/>
      <point x="40" y="800" type="line"/>
      <point x="40" y="700" type="line"/>
      <point x="302" y="700" type="line"/>
      <point x="30" y="90" type="line"/>
    </contour>
  </outline>
</glyph>
<glyph name="bracketleft" format="2">
  <advance width="250"/>
  <unicode hex="005B"/>
  <outline>
    <contour>
      <point x="50.0" y="-150.0" type="line"/>
      <point x="240.0" y="-150.0" type="line"/>
      <point x="240.0" y="-60.0" type="line"/>
      <point x="120.0" y="-60.0" type="line"/>
      <point x="120.0" y="660.0" type="line"/>
      <point x="240.0" y="660.0" type="line"/>
      <point x="240.0" y="750.0" type="line"/>
      <point x="50.0" y="750.0" type="line"/>
    </contour>
  </outline>
</glyph>
<glyph name="bracketright" format="2">
  <advance width="250"/>
  <unicode hex="005D"/>
  <outline>
    <contour>
      <point x="200" y="-150" type="line"/>
      <point x="200" y="750" type="line"/>
      <point x="10" y="750" type="line"/>
      <point x="10" y="660" type="line"/>
      <point x="130" y="660" type="line"/>
      <point x="130" y="-60" type="line"/>
      <point x="10" y="-60" type="line"/>
      <point x="10" y="-150" type="line"/>
    </contour>
  </outline>
</glyph>
<glyph name="asciicircum" format="2">
  <advance width="450"/>
  <unicode hex="005E"/>
  <outline>
    <contour>
      <point x="425" y="400" type="line"/>
      <point x="275" y="800" type="line"/>
      <point x="199" y="800" type="line"/>
      <point x="339" y="400" type="line"/>
    </contour>
    <contour>
      <point x="109" y="400" type="line"/>
      <point x="249" y="800" type="line"/>
      <point x="175" y="800" type="line"/>
      <point x="25" y="400" type="line"/>
    </contour>
  </outline>
</glyph>
<glyph name="underscore" format="2">
  <advance width="400"/>
  <unicode hex="005F"/>
  <outline>
    <contour>
      <point x="380" y="0" type="line"/>
      <point x="20" y="0" type="line"/>
      <point x="20" y="-90" type="line"/>
      <point x="380" y="-90" type="line"/>
    </contour>
  </outline>
</glyph>
<glyph name="a" format="2">
  <advance width="400"/>
  <unicode hex="0061"/>
  <anchor x="200" y="600" name="top"/>
  <anchor x="375" y="0" name="ogonek"/>
  <outline>
    <contour>
      <point x="175" y="85" type="curve" smooth="yes"/>
      <point x="125" y="85"/>
      <point x="100" y="120"/>
      <point x="100" y="160" type="curve" smooth="yes"/>
      <point x="100" y="260"/>
      <point x="220" y="270"/>
      <point x="280" y="310" type="curve"/>
      <point x="280" y="220" type="line" smooth="yes"/>
      <point x="280" y="140"/>
      <point x="225" y="85"/>
    </contour>
    <contour>
      <point x="155" y="-10" type="curve" smooth="yes"/>
      <point x="215" y="-10"/>
      <point x="255" y="30"/>
      <point x="275" y="90" type="curve"/>
      <point x="280" y="90" type="line"/>
      <point x="280" y="60"/>
      <point x="283" y="30"/>
      <point x="292" y="0" type="curve"/>
      <point x="375" y="0" type="line"/>
      <point x="365" y="30"/>
      <point x="360" y="70"/>
      <point x="360" y="120" type="curve" smooth="yes"/>
      <point x="360" y="400" type="line" smooth="yes"/>
      <point x="360" y="540"/>
      <point x="290" y="610"/>
      <point x="200" y="610" type="curve" smooth="yes"/>
      <point x="110" y="610"/>
      <point x="45" y="540"/>
      <point x="35" y="420" type="curve"/>
      <point x="110" y="420" type="line"/>
      <point x="115" y="480"/>
      <point x="150" y="515"/>
      <point x="200" y="515" type="curve" smooth="yes"/>
      <point x="250" y="515"/>
      <point x="280" y="480"/>
      <point x="280" y="430" type="curve" smooth="yes"/>
      <point x="280" y="340"/>
      <point x="25" y="380"/>
      <point x="25" y="160" type="curve" smooth="yes"/>
      <point x="25" y="70"/>
      <point x="75" y="-10"/>
    </contour>
  </outline>
</glyph>
<glyph name="c" format="2">
  <advance width="395"/>
  <unicode hex="0063"/>
  <anchor x="205" y="600" name="top"/>
  <anchor x="205" y="0" name="bottom"/>
  <outline>
    <contour>
      <point x="375" y="390" type="line"/>
      <point x="361" y="530"/>
      <point x="299" y="610"/>
      <point x="205" y="610" type="curve" smooth="yes"/>
      <point x="92" y="610"/>
      <point x="25" y="494"/>
      <point x="25" y="300" type="curve" smooth="yes"/>
      <point x="25" y="106"/>
      <point x="92" y="-10"/>
      <point x="205" y="-10" type="curve" smooth="yes"/>
      <point x="299" y="-10"/>
      <point x="361" y="70"/>
      <point x="375" y="210" type="curve"/>
      <point x="298" y="210" type="line"/>
      <point x="290" y="130"/>
      <point x="255" y="85"/>
      <point x="205" y="85" type="curve" smooth="yes"/>
      <point x="139" y="85"/>
      <point x="100" y="166"/>
      <point x="100" y="300" type="curve" smooth="yes"/>
      <point x="100" y="434"/>
      <point x="139" y="515"/>
      <point x="205" y="515" type="curve" smooth="yes"/>
      <point x="255" y="515"/>
      <point x="290" y="470"/>
      <point x="298" y="390" type="curve"/>
    </contour>
  </outline>
</glyph>
<glyph name="i" format="2">
  <advance width="170"/>
  <unicode hex="0069"/>
  <anchor x="125" y="0" name="ogonek"/>
  <outline>
    <contour>
      <point x="45" y="0" type="line"/>
      <point x="125" y="0" type="line"/>
      <point x="125" y="600" type="line"/>
      <point x="45" y="600" type="line"/>
    </contour>
    <contour>
      <point x="45" y="660" type="line"/>
      <point x="125" y="660" type="line"/>
      <point x="125" y="760" type="line"/>
      <point x="45" y="760" type="line"/>
    </contour>
  </outline>
</glyph>
<glyph name="j" format="2">
  <advance width="170"/>
  <unicode hex="006A"/>
  <outline>
    <contour>
      <point x="45" y="660" type="line"/>
      <point x="125" y="660" type="line"/>
      <point x="125" y="760" type="line"/>
      <point x="45" y="760" type="line"/>
    </contour>
    <contour>
      <point x="45" y="600" type="line"/>
      <point x="45" y="-80" type="line" smooth="yes"/>
      <point x="45" y="-100"/>
      <point x="35" y="-110"/>
      <point x="15" y="-110" type="curve" smooth="yes"/>
      <point x="-25" y="-110" type="line"/>
      <point x="-25" y="-200" type="line"/>
      <point x="25" y="-200" type="line" smooth="yes"/>
      <point x="85" y="-200"/>
      <point x="125" y="-160"/>
      <point x="125" y="-100" type="curve" smooth="yes"/>
      <point x="125" y="600" type="line"/>
    </contour>
  </outline>
</glyph>
<glyph name="k" format="2">
  <advance width="370"/>
  <unicode hex="006B"/>
  <anchor x="200" y="0" name="bottom"/>
  <outline>
    <contour>
      <point x="45" y="0" type="line"/>
      <point x="125" y="0" type="line"/>
      <point x="125" y="800" type="line"/>
      <point x="45" y="800" type="line"/>
    </contour>
    <contour>
      <point x="285" y="600" type="line"/>
      <point x="45" y="165" type="line"/>
      <point x="125" y="160" type="line"/>
      <point x="380" y="600" type="line"/>
    </contour>
    <contour>
      <point x="290" y="0" type="line"/>
      <point x="380" y="0" type="line"/>
      <point x="230" y="360" type="line"/>
      <point x="155" y="340" type="line"/>
    </contour>
  </outline>
</glyph>
<glyph name="l" format="2">
  <advance width="170"/>
  <unicode hex="006C"/>
  <anchor x="85" y="800" name="top"/>
  <anchor x="85" y="0" name="bottom"/>
  <anchor x="125" y="600" name="caron.alt"/>
  <outline>
    <contour>
      <point x="45" y="0" type="line"/>
      <point x="125" y="0" type="line"/>
      <point x="125" y="800" type="line"/>
      <point x="45" y="800" type="line"/>
    </contour>
  </outline>
</glyph>
<glyph name="m" format="2">
  <advance width="645"/>
  <unicode hex="006D"/>
  <outline>
    <contour>
      <point x="125" y="320" type="line" smooth="yes"/>
      <point x="125" y="460"/>
      <point x="161" y="515"/>
      <point x="215" y="515" type="curve" smooth="yes"/>
      <point x="268" y="515"/>
      <point x="285" y="460"/>
      <point x="285" y="360" type="curve" smooth="yes"/>
      <point x="285" y="0" type="line"/>
      <point x="365" y="0" type="line"/>
      <point x="365" y="400" type="line" smooth="yes"/>
      <point x="365" y="540"/>
      <point x="314" y="610"/>
      <point x="240" y="610" type="curve" smooth="yes"/>
      <point x="185" y="610"/>
      <point x="150" y="570"/>
      <point x="130" y="510" type="curve"/>
      <point x="125" y="510" type="line"/>
      <point x="125" y="600" type="line"/>
      <point x="45" y="600" type="line"/>
      <point x="45" y="0" type="line"/>
      <point x="125" y="0" type="line"/>
    </contour>
    <contour>
      <point x="365" y="320" type="line"/>
      <point x="365" y="460"/>
      <point x="401" y="515"/>
      <point x="455" y="515" type="curve" smooth="yes"/>
      <point x="508" y="515"/>
      <point x="525" y="460"/>
      <point x="525" y="360" type="curve" smooth="yes"/>
      <point x="525" y="0" type="line"/>
      <point x="605" y="0" type="line"/>
      <point x="605" y="400" type="line" smooth="yes"/>
      <point x="605" y="540"/>
      <point x="550" y="610"/>
      <point x="470" y="610" type="curve" smooth="yes"/>
      <point x="418" y="610"/>
      <point x="375" y="570"/>
      <point x="355" y="510" type="curve"/>
      <point x="350" y="510" type="line"/>
      <point x="350" y="320" type="line"/>
    </contour>
  </outline>
</glyph>
<glyph name="n" format="2">
  <advance width="425"/>
  <unicode hex="006E"/>
  <anchor x="215" y="0" name="bottom"/>
  <anchor x="215" y="600" name="top"/>
  <outline>
    <contour>
      <point x="125" y="320" type="line" smooth="yes"/>
      <point x="125" y="460"/>
      <point x="165" y="515"/>
      <point x="225" y="515" type="curve" smooth="yes"/>
      <point x="285" y="515"/>
      <point x="305" y="460"/>
      <point x="305" y="360" type="curve" smooth="yes"/>
      <point x="305" y="0" type="line"/>
      <point x="385" y="0" type="line"/>
      <point x="385" y="400" type="line" smooth="yes"/>
      <point x="385" y="540"/>
      <point x="330" y="610"/>
      <point x="250" y="610" type="curve" smooth="yes"/>
      <point x="190" y="610"/>
      <point x="150" y="570"/>
      <point x="130" y="510" type="curve"/>
      <point x="125" y="510" type="line"/>
      <point x="125" y="600" type="line"/>
      <point x="45" y="600" type="line"/>
      <point x="45" y="0" type="line"/>
      <point x="125" y="0" type="line"/>
    </contour>
  </outline>
</glyph>
<glyph name="q" format="2">
  <advance width="430"/>
  <unicode hex="0071"/>
  <outline>
    <contour>
      <point x="25" y="300" type="curve" smooth="yes"/>
      <point x="25" y="106"/>
      <point x="93" y="-10"/>
      <point x="185" y="-10" type="curve" smooth="yes"/>
      <point x="240" y="-10"/>
      <point x="280" y="30"/>
      <point x="300" y="90" type="curve"/>
      <point x="305" y="90" type="line"/>
      <point x="305" y="-200" type="line"/>
      <point x="385" y="-200" type="line"/>
      <point x="385" y="600" type="line"/>
      <point x="305" y="600" type="line"/>
      <point x="305" y="510" type="line"/>
      <point x="300" y="510" type="line"/>
      <point x="280" y="570"/>
      <point x="240" y="610"/>
      <point x="185" y="610" type="curve" smooth="yes"/>
      <point x="93" y="610"/>
      <point x="25" y="494"/>
    </contour>
    <contour>
      <point x="310" y="300" type="curve" smooth="yes"/>
      <point x="310" y="166"/>
      <point x="271" y="85"/>
      <point x="205" y="85" type="curve" smooth="yes"/>
      <point x="139" y="85"/>
      <point x="100" y="166"/>
      <point x="100" y="300" type="curve" smooth="yes"/>
      <point x="100" y="434"/>
      <point x="139" y="515"/>
      <point x="205" y="515" type="curve" smooth="yes"/>
      <point x="271" y="515"/>
      <point x="310" y="434"/>
    </contour>
  </outline>
</glyph>
<glyph name="s" format="2">
  <advance width="356"/>
  <unicode hex="0073"/>
  <anchor x="181" y="600" name="top"/>
  <anchor x="181" y="0" name="bottom"/>
  <outline>
    <contour>
      <point x="21" y="180" type="line"/>
      <point x="21" y="80"/>
      <point x="81" y="-10"/>
      <point x="181" y="-10" type="curve" smooth="yes"/>
      <point x="281" y="-10"/>
      <point x="341" y="80"/>
      <point x="341" y="160" type="curve" smooth="yes"/>
      <point x="341" y="250"/>
      <point x="301" y="310"/>
      <point x="181" y="350" type="curve" smooth="yes"/>
      <point x="121" y="370"/>
      <point x="101" y="400"/>
      <point x="101" y="440" type="curve" smooth="yes"/>
      <point x="101" y="480"/>
      <point x="131" y="515"/>
      <point x="181" y="515" type="curve" smooth="yes"/>
      <point x="231" y="515"/>
      <point x="261" y="480"/>
      <point x="261" y="420" type="curve"/>
      <point x="336" y="420" type="line"/>
      <point x="336" y="520"/>
      <point x="281" y="610"/>
      <point x="181" y="610" type="curve" smooth="yes"/>
      <point x="81" y="610"/>
      <point x="26" y="520"/>
      <point x="26" y="440" type="curve" smooth="yes"/>
      <point x="26" y="350"/>
      <point x="61" y="290"/>
      <point x="181" y="250" type="curve" smooth="yes"/>
      <point x="241" y="230"/>
      <point x="266" y="200"/>
      <point x="266" y="160" type="curve" smooth="yes"/>
      <point x="266" y="120"/>
      <point x="231" y="85"/>
      <point x="181" y="85" type="curve" smooth="yes"/>
      <point x="131" y="85"/>
      <point x="96" y="120"/>
      <point x="96" y="180" type="curve"/>
    </contour>
  </outline>
</glyph>
<glyph name="u" format="2">
  <advance width="425"/>
  <unicode hex="0075"/>
  <anchor x="210" y="600" name="top"/>
  <anchor x="380" y="0" name="ogonek"/>
  <outline>
    <contour>
      <point x="300" y="280" type="line" smooth="yes"/>
      <point x="300" y="140"/>
      <point x="260" y="85"/>
      <point x="200" y="85" type="curve" smooth="yes"/>
      <point x="140" y="85"/>
      <point x="120" y="140"/>
      <point x="120" y="240" type="curve" smooth="yes"/>
      <point x="120" y="600" type="line"/>
      <point x="40" y="600" type="line"/>
      <point x="40" y="200" type="line" smooth="yes"/>
      <point x="40" y="60"/>
      <point x="95" y="-10"/>
      <point x="175" y="-10" type="curve" smooth="yes"/>
      <point x="235" y="-10"/>
      <point x="275" y="30"/>
      <point x="295" y="90" type="curve"/>
      <point x="300" y="90" type="line"/>
      <point x="300" y="0" type="line"/>
      <point x="380" y="0" type="line"/>
      <point x="380" y="600" type="line"/>
      <point x="300" y="600" type="line"/>
    </contour>
  </outline>
</glyph>
<glyph name="v" format="2">
  <advance width="380"/>
  <unicode hex="0076"/>
  <outline>
    <contour>
      <point x="140" y="0" type="line"/>
      <point x="240" y="0" type="line"/>
      <point x="380" y="600" type="line"/>
      <point x="300" y="600" type="line"/>
      <point x="206" y="180" type="line"/>
      <point x="193" y="120" type="line"/>
      <point x="189" y="120" type="line"/>
      <point x="176" y="180" type="line"/>
      <point x="82" y="600" type="line"/>
      <point x="0" y="600" type="line"/>
    </contour>
  </outline>
</glyph>
<glyph name="w" format="2">
  <advance width="540"/>
  <unicode hex="0077"/>
  <anchor x="270" y="600" name="top"/>
  <outline>
    <contour>
      <point x="110" y="0" type="line"/>
      <point x="200" y="0" type="line"/>
      <point x="260" y="360" type="line"/>
      <point x="268" y="420" type="line"/>
      <point x="272" y="420" type="line"/>
      <point x="280" y="360" type="line"/>
      <point x="340" y="0" type="line"/>
      <point x="430" y="0" type="line"/>
      <point x="530" y="600" type="line"/>
      <point x="450" y="600" type="line"/>
      <point x="390" y="210" type="line"/>
      <point x="382" y="150" type="line"/>
      <point x="378" y="150" type="line"/>
      <point x="370" y="210" type="line"/>
      <point x="310" y="600" type="line"/>
      <point x="230" y="600" type="line"/>
      <point x="170" y="210" type="line"/>
      <point x="162" y="150" type="line"/>
      <point x="158" y="150" type="line"/>
      <point x="150" y="210" type="line"/>
      <point x="90" y="600" type="line"/>
      <point x="10" y="600" type="line"/>
    </contour>
  </outline>
</glyph>
<glyph name="x" format="2">
  <advance width="360"/>
  <unicode hex="0078"/>
  <outline>
    <contour>
      <point x="0" y="0" type="line"/>
      <point x="84" y="0" type="line"/>
      <point x="209" y="300" type="line"/>
      <point x="209" y="360" type="line"/>
      <point x="155" y="360" type="line"/>
    </contour>
    <contour>
      <point x="91" y="600" type="line"/>
      <point x="5" y="600" type="line"/>
      <point x="134" y="300" type="line"/>
      <point x="190" y="300" type="line"/>
      <point x="190" y="360" type="line"/>
    </contour>
    <contour>
      <point x="360" y="0" type="line"/>
      <point x="205" y="360" type="line"/>
      <point x="149" y="360" type="line"/>
      <point x="149" y="300" type="line"/>
      <point x="274" y="0" type="line"/>
    </contour>
    <contour>
      <point x="271" y="600" type="line"/>
      <point x="172" y="360" type="line"/>
      <point x="172" y="300" type="line"/>
      <point x="226" y="300" type="line"/>
      <point x="355" y="600" type="line"/>
    </contour>
    <contour>
      <point x="161" y="370" type="line"/>
      <point x="199" y="370" type="line"/>
      <point x="199" y="387" type="line"/>
      <point x="161" y="387" type="line"/>
    </contour>
    <contour>
      <point x="161" y="223" type="line"/>
      <point x="199" y="223" type="line"/>
      <point x="199" y="240" type="line"/>
      <point x="161" y="240" type="line"/>
    </contour>
  </outline>
</glyph>
<glyph name="z" format="2">
  <advance width="350"/>
  <unicode hex="007A"/>
  <anchor x="175" y="600" name="top"/>
  <outline>
    <contour>
      <point x="20" y="0" type="line"/>
      <point x="330" y="0" type="line"/>
      <point x="330" y="90" type="line"/>
      <point x="108" y="90" type="line"/>
      <point x="330" y="515" type="line"/>
      <point x="330" y="600" type="line"/>
      <point x="30" y="600" type="line"/>
      <point x="30" y="510" type="line"/>
      <point x="242" y="510" type="line"/>
      <point x="20" y="85" type="line"/>
    </contour>
  </outline>
</glyph>
<glyph name="braceleft" format="2">
  <advance width="250"/>
  <unicode hex="007B"/>
  <outline>
    <contour>
      <point x="70.0" y="300.0" type="line"/>
      <point x="137.0" y="300.0"/>
      <point x="170.0" y="340.0"/>
      <point x="170.0" y="420.0" type="curve" smooth="yes"/>
      <point x="170.0" y="600.0" type="line" smooth="yes"/>
      <point x="170.0" y="640.0"/>
      <point x="185.0" y="660.0"/>
      <point x="215.0" y="660.0" type="curve" smooth="yes"/>
      <point x="240.0" y="660.0" type="line"/>
      <point x="240.0" y="750.0" type="line"/>
      <point x="200.0" y="750.0" type="line" smooth="yes"/>
      <point x="133.0" y="750.0"/>
      <point x="100.0" y="702.0"/>
      <point x="100.0" y="610.0" type="curve" smooth="yes"/>
      <point x="100.0" y="420.0" type="line" smooth="yes"/>
      <point x="100.0" y="380.0"/>
      <point x="85.0" y="360.0"/>
      <point x="55.0" y="360.0" type="curve" smooth="yes"/>
      <point x="30.0" y="360.0" type="line"/>
      <point x="30.0" y="240.0" type="line"/>
      <point x="55.0" y="240.0" type="line" smooth="yes"/>
      <point x="85.0" y="240.0"/>
      <point x="100.0" y="220.0"/>
      <point x="100.0" y="180.0" type="curve" smooth="yes"/>
      <point x="100.0" y="-10.0" type="line" smooth="yes"/>
      <point x="100.0" y="-102.0"/>
      <point x="133.0" y="-150.0"/>
      <point x="200.0" y="-150.0" type="curve" smooth="yes"/>
      <point x="240.0" y="-150.0" type="line"/>
      <point x="240.0" y="-60.0" type="line"/>
      <point x="215.0" y="-60.0" type="line" smooth="yes"/>
      <point x="185.0" y="-60.0"/>
      <point x="170.0" y="-40.0"/>
      <point x="170.0" y="0.0" type="curve" smooth="yes"/>
      <point x="170.0" y="180.0" type="line" smooth="yes"/>
      <point x="170.0" y="260.0"/>
      <point x="137.0" y="300.0"/>
      <point x="70.0" y="300.0" type="curve"/>
    </contour>
    <contour>
      <point x="60.0" y="280.0" type="line"/>
      <point x="100.0" y="280.0" type="line"/>
      <point x="100.0" y="320.0" type="line"/>
      <point x="60.0" y="320.0" type="line"/>
    </contour>
  </outline>
</glyph>
<glyph name="bar" format="2">
  <advance width="220"/>
  <unicode hex="007C"/>
  <outline>
    <contour>
      <point x="75" y="-150" type="line"/>
      <point x="145" y="-150" type="line"/>
      <point x="145" y="750" type="line"/>
      <point x="75" y="750" type="line"/>
    </contour>
  </outline>
</glyph>
<glyph name="braceright" format="2">
  <advance width="250"/>
  <unicode hex="007D"/>
  <outline>
    <contour>
      <point x="180" y="300" type="curve"/>
      <point x="180" y="300" type="line"/>
      <point x="113" y="300"/>
      <point x="80" y="260"/>
      <point x="80" y="180" type="curve" smooth="yes"/>
      <point x="80" y="0" type="line" smooth="yes"/>
      <point x="80" y="-40"/>
      <point x="65" y="-60"/>
      <point x="35" y="-60" type="curve" smooth="yes"/>
      <point x="10" y="-60" type="line"/>
      <point x="10" y="-150" type="line"/>
      <point x="50" y="-150" type="line" smooth="yes"/>
      <point x="117" y="-150"/>
      <point x="150" y="-102"/>
      <point x="150" y="-10" type="curve" smooth="yes"/>
      <point x="150" y="180" type="line" smooth="yes"/>
      <point x="150" y="220"/>
      <point x="165" y="240"/>
      <point x="195" y="240" type="curve" smooth="yes"/>
      <point x="220" y="240" type="line"/>
      <point x="220" y="360" type="line"/>
      <point x="195" y="360" type="line" smooth="yes"/>
      <point x="165" y="360"/>
      <point x="150" y="380"/>
      <point x="150" y="420" type="curve" smooth="yes"/>
      <point x="150" y="610" type="line" smooth="yes"/>
      <point x="150" y="702"/>
      <point x="117" y="750"/>
      <point x="50" y="750" type="curve" smooth="yes"/>
      <point x="10" y="750" type="line"/>
      <point x="10" y="660" type="line"/>
      <point x="35" y="660" type="line" smooth="yes"/>
      <point x="65" y="660"/>
      <point x="80" y="640"/>
      <point x="80" y="600" type="curve" smooth="yes"/>
      <point x="80" y="420" type="line" smooth="yes"/>
      <point x="80" y="340"/>
      <point x="113" y="300"/>
    </contour>
    <contour>
      <point x="190" y="280" type="line"/>
      <point x="190" y="320" type="line"/>
      <point x="150" y="320" type="line"/>
      <point x="150" y="280" type="line"/>
    </contour>
  </outline>
</glyph>
<glyph name="asciitilde" format="2">
  <advance width="450"/>
  <unicode hex="007E"/>
  <outline>
    <contour>
      <point x="40" y="300" type="curve" smooth="yes"/>
      <point x="40" y="230" type="line"/>
      <point x="110" y="230" type="line"/>
      <point x="110" y="300" type="line" smooth="yes"/>
      <point x="110" y="354"/>
      <point x="123" y="380"/>
      <point x="150" y="380" type="curve" smooth="yes"/>
      <point x="198" y="380"/>
      <point x="214" y="230"/>
      <point x="310" y="230" type="curve" smooth="yes"/>
      <point x="390" y="230"/>
      <point x="410" y="320"/>
      <point x="410" y="400" type="curve" smooth="yes"/>
      <point x="410" y="470" type="line"/>
      <point x="340" y="470" type="line"/>
      <point x="340" y="400" type="line" smooth="yes"/>
      <point x="340" y="346"/>
      <point x="327" y="320"/>
      <point x="300" y="320" type="curve" smooth="yes"/>
      <point x="252" y="320"/>
      <point x="236" y="470"/>
      <point x="140" y="470" type="curve" smooth="yes"/>
      <point x="60" y="470"/>
      <point x="40" y="380"/>
    </contour>
  </outline>
</glyph>
<glyph name="exclamdown" format="2">
  <advance width="190"/>
  <unicode hex="00A1"/>
  <outline>
    <contour>
      <point x="60" y="380" type="line"/>
      <point x="50" y="-200" type="line"/>
      <point x="140" y="-200" type="line"/>
      <point x="130" y="380" type="line"/>
    </contour>
    <contour>
      <point x="50" y="600" type="line"/>
      <point x="50" y="480" type="line"/>
      <point x="140" y="480" type="line"/>
      <point x="140" y="600" type="line"/>
    </contour>
  </outline>
</glyph>
<glyph name="yen" format="2">
  <advance width="450"/>
  <unicode hex="00A5"/>
  <outline>
    <contour>
      <point x="228" y="440" type="line"/>
      <point x="224" y="440" type="line"/>
      <point x="202" y="500" type="line"/>
      <point x="91" y="800" type="line"/>
      <point x="5" y="800" type="line"/>
      <point x="185" y="320" type="line"/>
      <point x="185" y="0" type="line"/>
      <point x="265" y="0" type="line"/>
      <point x="265" y="320" type="line"/>
      <point x="445" y="800" type="line"/>
      <point x="361" y="800" type="line"/>
      <point x="250" y="500" type="line"/>
    </contour>
    <contour>
      <point x="410" y="170" type="line"/>
      <point x="410" y="240" type="line"/>
      <point x="40" y="240" type="line"/>
      <point x="40" y="170" type="line"/>
    </contour>
    <contour>
      <point x="410" y="320" type="line"/>
      <point x="410" y="390" type="line"/>
      <point x="40" y="390" type="line"/>
      <point x="40" y="320" type="line"/>
    </contour>
  </outline>
</glyph>
<glyph name="ordfeminine" format="2">
  <advance width="300"/>
  <unicode hex="00AA"/>
  <outline>
    <contour>
      <point x="128" y="465" type="curve" smooth="yes"/>
      <point x="103" y="465"/>
      <point x="88" y="485"/>
      <point x="88" y="510" type="curve" smooth="yes"/>
      <point x="88" y="570"/>
      <point x="160" y="565"/>
      <point x="200" y="590" type="curve"/>
      <point x="200" y="560" type="line" smooth="yes"/>
      <point x="200" y="510"/>
      <point x="168" y="465"/>
    </contour>
    <contour>
      <point x="118" y="390" type="curve" smooth="yes"/>
      <point x="158" y="390"/>
      <point x="182" y="417"/>
      <point x="196" y="458" type="curve"/>
      <point x="200" y="458" type="line"/>
      <point x="200" y="438"/>
      <point x="202" y="417"/>
      <point x="208" y="397" type="curve"/>
      <point x="270" y="397" type="line"/>
      <point x="264" y="417"/>
      <point x="260" y="438"/>
      <point x="260" y="458" type="curve" smooth="yes"/>
      <point x="260" y="660" type="line" smooth="yes"/>
      <point x="260" y="760"/>
      <point x="220" y="810"/>
      <point x="150" y="810" type="curve" smooth="yes"/>
      <point x="85" y="810"/>
      <point x="40" y="760"/>
      <point x="32" y="670" type="curve"/>
      <point x="92" y="670" type="line"/>
      <point x="95" y="706"/>
      <point x="118" y="735"/>
      <point x="150" y="735" type="curve" smooth="yes"/>
      <point x="184" y="735"/>
      <point x="200" y="710"/>
      <point x="200" y="680" type="curve" smooth="yes"/>
      <point x="200" y="610"/>
      <point x="28" y="660"/>
      <point x="28" y="510" type="curve" smooth="yes"/>
      <point x="28" y="444"/>
      <point x="60" y="390"/>
    </contour>
  </outline>
</glyph>
<glyph name="guillemetleft" format="2">
  <advance width="540"/>
  <unicode hex="00AB"/>
  <outline>
    <contour>
      <point x="270.0" y="550.0" type="line"/>
      <point x="30.0" y="350.0" type="line"/>
      <point x="30.0" y="256.0" type="line"/>
      <point x="270.0" y="446.0" type="line"/>
    </contour>
    <contour>
      <point x="270.0" y="156.0" type="line"/>
      <point x="30.0" y="346.0" type="line"/>
      <point x="30.0" y="250.0" type="line"/>
      <point x="270.0" y="50.0" type="line"/>
    </contour>
    <contour>
      <point x="510.0" y="550.0" type="line"/>
      <point x="270.0" y="350.0" type="line"/>
      <point x="270.0" y="256.0" type="line"/>
      <point x="510.0" y="446.0" type="line"/>
    </contour>
    <contour>
      <point x="510.0" y="156.0" type="line"/>
      <point x="270.0" y="346.0" type="line"/>
      <point x="270.0" y="250.0" type="line"/>
      <point x="510.0" y="50.0" type="line"/>
    </contour>
  </outline>
</glyph>
<glyph name="registered" format="2">
  <advance width="600"/>
  <unicode hex="00AE"/>
  <outline>
    <contour>
      <point x="300" y="-10" type="curve" smooth="yes"/>
      <point x="456" y="-10"/>
      <point x="560" y="154"/>
      <point x="560" y="400" type="curve" smooth="yes"/>
      <point x="560" y="646"/>
      <point x="456" y="810"/>
      <point x="300" y="810" type="curve" smooth="yes"/>
      <point x="144" y="810"/>
      <point x="40" y="646"/>
      <point x="40" y="400" type="curve" smooth="yes"/>
      <point x="40" y="154"/>
      <point x="144" y="-10"/>
    </contour>
    <contour>
      <point x="300" y="70" type="curve" smooth="yes"/>
      <point x="180" y="70"/>
      <point x="100" y="202"/>
      <point x="100" y="400" type="curve" smooth="yes"/>
      <point x="100" y="598"/>
      <point x="180" y="730"/>
      <point x="300" y="730" type="curve" smooth="yes"/>
      <point x="420" y="730"/>
      <point x="500" y="598"/>
      <point x="500" y="400" type="curve" smooth="yes"/>
      <point x="500" y="202"/>
      <point x="420" y="70"/>
    </contour>
    <contour>
      <point x="295" y="545" type="line" smooth="yes"/>
      <point x="340" y="545"/>
      <point x="365" y="525"/>
      <point x="365" y="485" type="curve" smooth="yes"/>
      <point x="365" y="445"/>
      <point x="340" y="425"/>
      <point x="295" y="425" type="curve" smooth="yes"/>
      <point x="260" y="425" type="line"/>
      <point x="260" y="545" type="line"/>
    </contour>
    <contour>
      <point x="200" y="180" type="line"/>
      <point x="260" y="180" type="line"/>
      <point x="260" y="350" type="line"/>
      <point x="290" y="350" type="line" smooth="yes"/>
      <point x="330" y="350"/>
      <point x="350" y="330"/>
      <point x="350" y="290" type="curve" smooth="yes"/>
      <point x="350" y="230" type="line" smooth="yes"/>
      <point x="350" y="214"/>
      <point x="351" y="196"/>
      <point x="356" y="180" type="curve"/>
      <point x="418" y="180" type="line"/>
      <point x="412" y="196"/>
      <point x="410" y="214"/>
      <point x="410" y="230" type="curve" smooth="yes"/>
      <point x="410" y="290" type="line" smooth="yes"/>
      <point x="410" y="362"/>
      <point x="372" y="400"/>
      <point x="300" y="400" type="curve"/>
      <point x="295" y="370" type="line"/>
      <point x="375" y="370"/>
      <point x="420" y="415"/>
      <point x="420" y="495" type="curve" smooth="yes"/>
      <point x="420" y="575"/>
      <point x="375" y="620"/>
      <point x="295" y="620" type="curve" smooth="yes"/>
      <point x="200" y="620" type="line"/>
    </contour>
  </outline>
</glyph>
<glyph name="degree" format="2">
  <advance width="300"/>
  <unicode hex="00B0"/>
  <outline>
    <contour>
      <point x="150" y="550" type="curve" smooth="yes"/>
      <point x="228" y="550"/>
      <point x="270" y="608"/>
      <point x="270" y="680" type="curve" smooth="yes"/>
      <point x="270" y="752"/>
      <point x="228" y="810"/>
      <point x="150" y="810" type="curve" smooth="yes"/>
      <point x="72" y="810"/>
      <point x="30" y="752"/>
      <point x="30" y="680" type="curve" smooth="yes"/>
      <point x="30" y="608"/>
      <point x="72" y="550"/>
    </contour>
    <contour>
      <point x="150" y="620" type="curve" smooth="yes"/>
      <point x="115" y="620"/>
      <point x="90" y="645"/>
      <point x="90" y="680" type="curve" smooth="yes"/>
      <point x="90" y="715"/>
      <point x="115" y="740"/>
      <point x="150" y="740" type="curve" smooth="yes"/>
      <point x="185" y="740"/>
      <point x="210" y="715"/>
      <point x="210" y="680" type="curve" smooth="yes"/>
      <point x="210" y="645"/>
      <point x="185" y="620"/>
    </contour>
  </outline>
</glyph>
<glyph name="ordmasculine" format="2">
  <advance width="300"/>
  <unicode hex="00BA"/>
  <outline>
    <contour>
      <point x="30" y="600" type="curve" smooth="yes"/>
      <point x="30" y="468"/>
      <point x="75" y="390"/>
      <point x="150" y="390" type="curve" smooth="yes"/>
      <point x="225" y="390"/>
      <point x="270" y="468"/>
      <point x="270" y="600" type="curve" smooth="yes"/>
      <point x="270" y="732"/>
      <point x="225" y="810"/>
      <point x="150" y="810" type="curve" smooth="yes"/>
      <point x="75" y="810"/>
      <point x="30" y="732"/>
    </contour>
    <contour>
      <point x="90" y="600" type="curve" smooth="yes"/>
      <point x="90" y="683"/>
      <point x="108" y="730"/>
      <point x="150" y="730" type="curve" smooth="yes"/>
      <point x="192" y="730"/>
      <point x="210" y="683"/>
      <point x="210" y="600" type="curve" smooth="yes"/>
      <point x="210" y="517"/>
      <point x="192" y="470"/>
      <point x="150" y="470" type="curve" smooth="yes"/>
      <point x="108" y="470"/>
      <point x="90" y="517"/>
    </contour>
  </outline>
</glyph>
<glyph name="guillemetright" format="2">
  <advance width="540"/>
  <unicode hex="00BB"/>
  <outline>
    <contour>
      <point x="270.0" y="50.0" type="line"/>
      <point x="510.0" y="250.0" type="line"/>
      <point x="510.0" y="344.0" type="line"/>
      <point x="270.0" y="154.0" type="line"/>
    </contour>
    <contour>
      <point x="270.0" y="444.0" type="line"/>
      <point x="510.0" y="254.0" type="line"/>
      <point x="510.0" y="350.0" type="line"/>
      <point x="270.0" y="550.0" type="line"/>
    </contour>
    <contour>
      <point x="30.0" y="50.0" type="line"/>
      <point x="270.0" y="250.0" type="line"/>
      <point x="270.0" y="344.0" type="line"/>
      <point x="30.0" y="154.0" type="line"/>
    </contour>
    <contour>
      <point x="30.0" y="444.0" type="line"/>
      <point x="270.0" y="254.0" type="line"/>
      <point x="270.0" y="350.0" type="line"/>
      <point x="30.0" y="550.0" type="line"/>
    </contour>
  </outline>
</glyph>
<glyph name="questiondown" format="2">
  <advance width="420"/>
  <unicode hex="00BF"/>
  <outline>
    <contour>
      <point x="110" y="10" type="curve" smooth="yes"/>
      <point x="110" y="130"/>
      <point x="250" y="170"/>
      <point x="250" y="330" type="curve" smooth="yes"/>
      <point x="250" y="380" type="line"/>
      <point x="180" y="380" type="line"/>
      <point x="180" y="330" type="line" smooth="yes"/>
      <point x="180" y="210"/>
      <point x="35" y="170"/>
      <point x="35" y="10" type="curve" smooth="yes"/>
      <point x="35" y="-90"/>
      <point x="90" y="-210"/>
      <point x="215" y="-210" type="curve" smooth="yes"/>
      <point x="340" y="-210"/>
      <point x="395" y="-90"/>
      <point x="395" y="30" type="curve"/>
      <point x="320" y="30" type="line"/>
      <point x="320" y="-50"/>
      <point x="290" y="-110"/>
      <point x="215" y="-110" type="curve" smooth="yes"/>
      <point x="140" y="-110"/>
      <point x="110" y="-50"/>
    </contour>
    <contour>
      <point x="260" y="600" type="line"/>
      <point x="170" y="600" type="line"/>
      <point x="170" y="480" type="line"/>
      <point x="260" y="480" type="line"/>
    </contour>
  </outline>
</glyph>
<glyph name="Agrave" format="2">
  <advance width="480"/>
  <unicode hex="00C0"/>
  <outline>
    <contour>
      <point x="0" y="0" type="line"/>
      <point x="80" y="0" type="line"/>
      <point x="217" y="600" type="line"/>
      <point x="235" y="680" type="line"/>
      <point x="241" y="680" type="line"/>
      <point x="259" y="600" type="line"/>
      <point x="396" y="0" type="line"/>
      <point x="480" y="0" type="line"/>
      <point x="292" y="800" type="line"/>
      <point x="188" y="800" type="line"/>
    </contour>
    <contour>
      <point x="115" y="220" type="line"/>
      <point x="365" y="220" type="line"/>
      <point x="365" y="320" type="line"/>
      <point x="115" y="320" type="line"/>
    </contour>
    <contour>
      <point x="275" y="800" type="line"/>
      <point x="240" y="900" type="line"/>
      <point x="150" y="900" type="line"/>
      <point x="205" y="800" type="line"/>
    </contour>
  </outline>
</glyph>
<glyph name="Aring" format="2">
  <advance width="480"/>
  <unicode hex="00C5"/>
  <outline>
    <contour>
      <point x="0" y="0" type="line"/>
      <point x="80" y="0" type="line"/>
      <point x="217" y="600" type="line"/>
      <point x="235" y="680" type="line"/>
      <point x="241" y="680" type="line"/>
      <point x="259" y="600" type="line"/>
      <point x="396" y="0" type="line"/>
      <point x="480" y="0" type="line"/>
      <point x="292" y="800" type="line"/>
      <point x="240" y="710" type="line"/>
      <point x="188" y="800" type="line"/>
    </contour>
    <contour>
      <point x="115" y="220" type="line"/>
      <point x="365" y="220" type="line"/>
      <point x="365" y="320" type="line"/>
      <point x="115" y="320" type="line"/>
    </contour>
    <contour>
      <point x="240" y="705" type="curve" smooth="yes"/>
      <point x="294" y="705"/>
      <point x="330" y="746"/>
      <point x="330" y="800" type="curve" smooth="yes"/>
      <point x="330" y="854"/>
      <point x="294" y="895"/>
      <point x="240" y="895" type="curve" smooth="yes"/>
      <point x="186" y="895"/>
      <point x="150" y="854"/>
      <point x="150" y="800" type="curve" smooth="yes"/>
      <point x="150" y="746"/>
      <point x="186" y="705"/>
    </contour>
    <contour>
      <point x="240" y="760" type="curve" smooth="yes"/>
      <point x="216" y="760"/>
      <point x="200" y="776"/>
      <point x="200" y="800" type="curve" smooth="yes"/>
      <point x="200" y="824"/>
      <point x="216" y="840"/>
      <point x="240" y="840" type="curve" smooth="yes"/>
      <point x="264" y="840"/>
      <point x="280" y="824"/>
      <point x="280" y="800" type="curve" smooth="yes"/>
      <point x="280" y="776"/>
      <point x="264" y="760"/>
    </contour>
  </outline>
</glyph>
<glyph name="multiply" format="2">
  <advance width="450"/>
  <unicode hex="00D7"/>
  <outline>
    <contour>
      <point x="35" y="130" type="line"/>
      <point x="95" y="90" type="line"/>
      <point x="415" y="570" type="line"/>
      <point x="355" y="610" type="line"/>
    </contour>
    <contour>
      <point x="415" y="130" type="line"/>
      <point x="95" y="610" type="line"/>
      <point x="35" y="570" type="line"/>
      <point x="355" y="90" type="line"/>
    </contour>
  </outline>
</glyph>
<glyph name="germandbls" format="2">
  <advance width="450"/>
  <unicode hex="00DF"/>
  <outline>
    <contour>
      <point x="175" y="0" type="line"/>
      <point x="210" y="0" type="line" smooth="yes"/>
      <point x="350" y="0"/>
      <point x="425" y="80"/>
      <point x="425" y="220" type="curve" smooth="yes"/>
      <point x="425" y="360"/>
      <point x="350" y="440"/>
      <point x="210" y="440" type="curve"/>
      <point x="210" y="380" type="line"/>
      <point x="340" y="380"/>
      <point x="420" y="460"/>
      <point x="420" y="590" type="curve" smooth="yes"/>
      <point x="420" y="720"/>
      <point x="345" y="810"/>
      <point x="235" y="810" type="curve" smooth="yes"/>
      <point x="125" y="810"/>
      <point x="45" y="720"/>
      <point x="45" y="580" type="curve" smooth="yes"/>
      <point x="45" y="0" type="line"/>
      <point x="125" y="0" type="line"/>
      <point x="125" y="580" type="line" smooth="yes"/>
      <point x="125" y="660"/>
      <point x="165" y="710"/>
      <point x="235" y="710" type="curve" smooth="yes"/>
      <point x="305" y="710"/>
      <point x="345" y="660"/>
      <point x="345" y="580" type="curve" smooth="yes"/>
      <point x="345" y="500"/>
      <point x="300" y="460"/>
      <point x="210" y="460" type="curve" smooth="yes"/>
      <point x="175" y="460" type="line"/>
      <point x="175" y="360" type="line"/>
      <point x="210" y="360" type="line" smooth="yes"/>
      <point x="295" y="360"/>
      <point x="350" y="315"/>
      <point x="350" y="230" type="curve" smooth="yes"/>
      <point x="350" y="145"/>
      <point x="295" y="100"/>
      <point x="210" y="100" type="curve" smooth="yes"/>
      <point x="175" y="100" type="line"/>
    </contour>
  </outline>
</glyph>
<glyph name="oslash" format="2">
  <advance width="410"/>
  <unicode hex="00F8"/>
  <outline>
    <contour>
      <point x="74" y="-27" type="line"/>
      <point x="390" y="600" type="line"/>
      <point x="336" y="627" type="line"/>
      <point x="20" y="0" type="line"/>
    </contour>
    <contour>
      <point x="25" y="300" type="curve" smooth="yes"/>
      <point x="25" y="106"/>
      <point x="92" y="-10"/>
      <point x="205" y="-10" type="curve" smooth="yes"/>
      <point x="318" y="-10"/>
      <point x="385" y="106"/>
      <point x="385" y="300" type="curve" smooth="yes"/>
      <point x="385" y="494"/>
      <point x="318" y="610"/>
      <point x="205" y="610" type="curve" smooth="yes"/>
      <point x="92" y="610"/>
      <point x="25" y="494"/>
    </contour>
    <contour>
      <point x="97" y="300" type="curve" smooth="yes"/>
      <point x="97" y="434"/>
      <point x="139" y="515"/>
      <point x="205" y="515" type="curve" smooth="yes"/>
      <point x="271" y="515"/>
      <point x="313" y="434"/>
      <point x="313" y="300" type="curve" smooth="yes"/>
      <point x="313" y="166"/>
      <point x="271" y="85"/>
      <point x="205" y="85" type="curve" smooth="yes"/>
      <point x="139" y="85"/>
      <point x="97" y="166"/>
    </contour>
  </outline>
</glyph>
<glyph name="Dcaron" format="2">
  <advance width="495"/>
  <unicode hex="010E"/>
  <outline>
    <contour>
      <point x="215" y="0" type="line" smooth="yes"/>
      <point x="369" y="0"/>
      <point x="460" y="144"/>
      <point x="460" y="400" type="curve" smooth="yes"/>
      <point x="460" y="656"/>
      <point x="369" y="800"/>
      <point x="215" y="800" type="curve" smooth="yes"/>
      <point x="60" y="800" type="line"/>
      <point x="60" y="0" type="line"/>
    </contour>
    <contour>
      <point x="215" y="100" type="curve" smooth="yes"/>
      <point x="140" y="100" type="line"/>
      <point x="140" y="700" type="line"/>
      <point x="215" y="700" type="line" smooth="yes"/>
      <point x="320" y="700"/>
      <point x="385" y="594"/>
      <point x="385" y="400" type="curve" smooth="yes"/>
      <point x="385" y="206"/>
      <point x="320" y="100"/>
    </contour>
    <contour>
      <point x="80" y="900" type="line"/>
      <point x="150" y="800" type="line"/>
      <point x="220" y="800" type="line"/>
      <point x="160" y="900" type="line"/>
    </contour>
    <contour>
      <point x="243" y="790" type="line"/>
      <point x="320" y="900" type="line"/>
      <point x="240" y="900" type="line"/>
      <point x="180" y="800" type="line"/>
    </contour>
  </outline>
</glyph>
<glyph name="Dcroat" format="2">
  <advance width="515"/>
  <unicode hex="0110"/>
  <outline>
    <contour>
      <point x="235" y="0" type="line" smooth="yes"/>
      <point x="389" y="0"/>
      <point x="480" y="144"/>
      <point x="480" y="400" type="curve" smooth="yes"/>
      <point x="480" y="656"/>
      <point x="389" y="800"/>
      <point x="235" y="800" type="curve" smooth="yes"/>
      <point x="80" y="800" type="line"/>
      <point x="80" y="0" type="line"/>
    </contour>
    <contour>
      <point x="235" y="100" type="curve" smooth="yes"/>
      <point x="160" y="100" type="line"/>
      <point x="160" y="700" type="line"/>
      <point x="235" y="700" type="line" smooth="yes"/>
      <point x="340" y="700"/>
      <point x="405" y="594"/>
      <point x="405" y="400" type="curve" smooth="yes"/>
      <point x="405" y="206"/>
      <point x="340" y="100"/>
    </contour>
    <contour>
      <point x="20" y="360" type="line"/>
      <point x="270" y="360" type="line"/>
      <point x="270" y="440" type="line"/>
      <point x="20" y="440" type="line"/>
    </contour>
  </outline>
</glyph>
<glyph name="gcommaaccent" format="2">
  <advance width="430"/>
  <unicode hex="0123"/>
  <outline>
    <contour>
      <point x="225" y="680" type="line"/>
      <point x="225" y="720"/>
      <point x="240" y="740"/>
      <point x="270" y="740" type="curve"/>
      <point x="270" y="800" type="line"/>
      <point x="210" y="800"/>
      <point x="180" y="760"/>
      <point x="180" y="680" type="curve"/>
      <point x="180" y="650" type="line"/>
      <point x="225" y="650" type="line"/>
    </contour>
    <component base="g"/>
  </outline>
</glyph>
<glyph name="Hbar" format="2">
  <advance width="550"/>
  <unicode hex="0126"/>
  <outline>
    <contour>
      <point x="80" y="0" type="line"/>
      <point x="160" y="0" type="line"/>
      <point x="160" y="340" type="line"/>
      <point x="390" y="340" type="line"/>
      <point x="390" y="0" type="line"/>
      <point x="470" y="0" type="line"/>
      <point x="470" y="800" type="line"/>
      <point x="390" y="800" type="line"/>
      <point x="390" y="440" type="line"/>
      <point x="160" y="440" type="line"/>
      <point x="160" y="800" type="line"/>
      <point x="80" y="800" type="line"/>
    </contour>
    <contour>
      <point x="10" y="600" type="line"/>
      <point x="540" y="600" type="line"/>
      <point x="540" y="680" type="line"/>
      <point x="10" y="680" type="line"/>
    </contour>
  </outline>
</glyph>
<glyph name="Idotaccent" format="2">
  <advance width="200"/>
  <unicode hex="0130"/>
  <outline>
    <contour>
      <point x="60" y="0" type="line"/>
      <point x="140" y="0" type="line"/>
      <point x="140" y="750" type="line"/>
      <point x="60" y="750" type="line"/>
    </contour>
    <contour>
      <point x="60" y="800" type="line"/>
      <point x="140" y="800" type="line"/>
      <point x="140" y="900" type="line"/>
      <point x="60" y="900" type="line"/>
    </contour>
  </outline>
</glyph>
<glyph name="dotlessi" format="2">
  <advance width="170"/>
  <unicode hex="0131"/>
  <anchor x="85" y="600" name="top"/>
  <outline>
    <contour>
      <point x="45" y="0" type="line"/>
      <point x="125" y="0" type="line"/>
      <point x="125" y="600" type="line"/>
      <point x="45" y="600" type="line"/>
    </contour>
  </outline>
</glyph>
<glyph name="IJ" format="2">
  <advance width="500"/>
  <unicode hex="0132"/>
  <outline>
    <contour>
      <point x="130" y="400" type="line"/>
      <point x="130" y="800" type="line"/>
      <point x="50" y="800" type="line"/>
      <point x="50" y="400" type="line"/>
    </contour>
    <contour>
      <point x="50" y="300" type="line"/>
      <point x="50" y="100"/>
      <point x="120" y="-10"/>
      <point x="250" y="-10" type="curve" smooth="yes"/>
      <point x="380" y="-10"/>
      <point x="450" y="100"/>
      <point x="450" y="300" type="curve" smooth="yes"/>
      <point x="450" y="800" type="line"/>
      <point x="370" y="800" type="line"/>
      <point x="370" y="300" type="line" smooth="yes"/>
      <point x="370" y="160"/>
      <point x="340" y="90"/>
      <point x="250" y="90" type="curve" smooth="yes"/>
      <point x="160" y="90"/>
      <point x="130" y="160"/>
      <point x="130" y="300" type="curve"/>
    </contour>
  </outline>
</glyph>
<glyph name="lslash" format="2">
  <advance width="220"/>
  <unicode hex="0142"/>
  <outline>
    <contour>
      <point x="70" y="0" type="line"/>
      <point x="150" y="0" type="line"/>
      <point x="150" y="800" type="line"/>
      <point x="70" y="800" type="line"/>
    </contour>
    <contour>
      <point x="10" y="240" type="line"/>
      <point x="210" y="410" type="line"/>
      <point x="210" y="510" type="line"/>
      <point x="10" y="340" type="line"/>
    </contour>
  </outline>
</glyph>
<glyph name="OE" format="2">
  <advance width="790"/>
  <unicode hex="0152"/>
  <outline>
    <contour>
      <point x="35" y="400" type="curve" smooth="yes"/>
      <point x="35" y="144"/>
      <point x="120" y="-10"/>
      <point x="260" y="-10" type="curve" smooth="yes"/>
      <point x="385" y="-10"/>
      <point x="460" y="144"/>
      <point x="460" y="400" type="curve" smooth="yes"/>
      <point x="460" y="656"/>
      <point x="385" y="810"/>
      <point x="260" y="810" type="curve" smooth="yes"/>
      <point x="120" y="810"/>
      <point x="35" y="656"/>
    </contour>
    <contour>
      <point x="110" y="400" type="curve" smooth="yes"/>
      <point x="110" y="594"/>
      <point x="166" y="710"/>
      <point x="260" y="710" type="curve" smooth="yes"/>
      <point x="354" y="710"/>
      <point x="410" y="594"/>
      <point x="410" y="400" type="curve" smooth="yes"/>
      <point x="410" y="206"/>
      <point x="354" y="90"/>
      <point x="260" y="90" type="curve" smooth="yes"/>
      <point x="166" y="90"/>
      <point x="110" y="206"/>
    </contour>
    <contour>
      <point x="410" y="0" type="line"/>
      <point x="760" y="0" type="line"/>
      <point x="760" y="100" type="line"/>
      <point x="490" y="100" type="line"/>
      <point x="490" y="360" type="line"/>
      <point x="730" y="360" type="line"/>
      <point x="730" y="460" type="line"/>
      <point x="490" y="460" type="line"/>
      <point x="490" y="700" type="line"/>
      <point x="750" y="700" type="line"/>
      <point x="750" y="800" type="line"/>
      <point x="410" y="800" type="line"/>
    </contour>
  </outline>
</glyph>
<glyph name="Wacute" format="2">
  <advance width="670"/>
  <unicode hex="1E82"/>
  <outline>
    <contour>
      <point x="130" y="0" type="line"/>
      <point x="236" y="0" type="line"/>
      <point x="323" y="580" type="line"/>
      <point x="333" y="660" type="line"/>
      <point x="337" y="660" type="line"/>
      <point x="347" y="580" type="line"/>
      <point x="434" y="0" type="line"/>
      <point x="540" y="0" type="line"/>
      <point x="660" y="800" type="line"/>
      <point x="576" y="800" type="line"/>
      <point x="495" y="220" type="line"/>
      <point x="485" y="140" type="line"/>
      <point x="481" y="140" type="line"/>
      <point x="471" y="220" type="line"/>
      <point x="390" y="800" type="line"/>
      <point x="280" y="800" type="line"/>
      <point x="199" y="220" type="line"/>
      <point x="189" y="140" type="line"/>
      <point x="185" y="140" type="line"/>
      <point x="175" y="220" type="line"/>
      <point x="94" y="800" type="line"/>
      <point x="10" y="800" type="line"/>
    </contour>
    <contour>
      <point x="300" y="800" type="line"/>
      <point x="370" y="800" type="line"/>
      <point x="425" y="900" type="line"/>
      <point x="335" y="900" type="line"/>
    </contour>
  </outline>
</glyph>
<glyph name="Germandbls" format="2">
  <advance width="470"/>
  <unicode hex="1E9E"/>
  <outline>
    <contour>
      <point x="190" y="0" type="line"/>
      <point x="235" y="0" type="line" smooth="yes"/>
      <point x="375" y="0"/>
      <point x="450" y="80"/>
      <point x="450" y="230" type="curve" smooth="yes"/>
      <point x="450" y="380"/>
      <point x="375" y="460"/>
      <point x="235" y="460" type="curve"/>
      <point x="241" y="400" type="line"/>
      <point x="440" y="710" type="line"/>
      <point x="440" y="800" type="line"/>
      <point x="250" y="800" type="line" smooth="yes"/>
      <point x="130" y="800"/>
      <point x="50" y="720"/>
      <point x="50" y="580" type="curve" smooth="yes"/>
      <point x="50" y="0" type="line"/>
      <point x="130" y="0" type="line"/>
      <point x="130" y="580" type="line" smooth="yes"/>
      <point x="130" y="660"/>
      <point x="170" y="700"/>
      <point x="250" y="700" type="curve" smooth="yes"/>
      <point x="350" y="700" type="line"/>
      <point x="190" y="450" type="line"/>
      <point x="190" y="360" type="line"/>
      <point x="235" y="360" type="line" smooth="yes"/>
      <point x="320" y="360"/>
      <point x="375" y="315"/>
      <point x="375" y="230" type="curve" smooth="yes"/>
      <point x="375" y="145"/>
      <point x="320" y="100"/>
      <point x="235" y="100" type="curve" smooth="yes"/>
      <point x="190" y="100" type="line"/>
    </contour>
  </outline>
</glyph>
<glyph name="endash" format="2">
  <advance width="400"/>
  <unicode hex="2013"/>
  <outline>
    <contour>
      <point x="355.0" y="345.0" type="line"/>
      <point x="45.0" y="345.0" type="line"/>
      <point x="45.0" y="255.0" type="line"/>
      <point x="355.0" y="255.0" type="line"/>
    </contour>
  </outline>
</glyph>
<glyph name="emdash" format="2">
  <advance width="800"/>
  <unicode hex="2014"/>
  <outline>
    <contour>
      <point x="755" y="345" type="line"/>
      <point x="45" y="345" type="line"/>
      <point x="45" y="255" type="line"/>
      <point x="755" y="255" type="line"/>
    </contour>
  </outline>
</glyph>
<glyph name="quoteleft" format="2">
  <advance width="180"/>
  <unicode hex="2018"/>
  <outline>
    <contour>
      <point x="135" y="650" type="line"/>
      <point x="90" y="650" type="line"/>
      <point x="90" y="680" type="line" smooth="yes"/>
      <point x="90" y="720"/>
      <point x="105" y="740"/>
      <point x="135" y="740" type="curve"/>
      <point x="135" y="800" type="line"/>
      <point x="75" y="800"/>
      <point x="45" y="760"/>
      <point x="45" y="680" type="curve" smooth="yes"/>
      <point x="45" y="530" type="line"/>
      <point x="135" y="530" type="line"/>
    </contour>
  </outline>
</glyph>
<glyph name="quotedblbase" format="2">
  <advance width="315"/>
  <unicode hex="201E"/>
  <outline>
    <contour>
      <point x="45" y="0" type="line"/>
      <point x="90" y="0" type="line"/>
      <point x="90" y="-30" type="line" smooth="yes"/>
      <point x="90" y="-70"/>
      <point x="75" y="-90"/>
      <point x="45" y="-90" type="curve"/>
      <point x="45" y="-150" type="line"/>
      <point x="105" y="-150"/>
      <point x="135" y="-110"/>
      <point x="135" y="-30" type="curve" smooth="yes"/>
      <point x="135" y="120" type="line"/>
      <point x="45" y="120" type="line"/>
    </contour>
    <contour>
      <point x="180" y="0" type="line"/>
      <point x="225" y="0" type="line"/>
      <point x="225" y="-30" type="line" smooth="yes"/>
      <point x="225" y="-70"/>
      <point x="210" y="-90"/>
      <point x="180" y="-90" type="curve"/>
      <point x="180" y="-150" type="line"/>
      <point x="240" y="-150"/>
      <point x="270" y="-110"/>
      <point x="270" y="-30" type="curve" smooth="yes"/>
      <point x="270" y="120" type="line"/>
      <point x="180" y="120" type="line"/>
    </contour>
  </outline>
</glyph>
<glyph name="bullet" format="2">
  <advance width="250"/>
  <unicode hex="2022"/>
  <outline>
    <contour>
      <point x="125" y="325" type="curve" smooth="yes"/>
      <point x="158" y="325"/>
      <point x="185" y="352"/>
      <point x="185" y="400" type="curve" smooth="yes"/>
      <point x="185" y="448"/>
      <point x="158" y="475"/>
      <point x="125" y="475" type="curve" smooth="yes"/>
      <point x="92" y="475"/>
      <point x="65" y="448"/>
      <point x="65" y="400" type="curve" smooth="yes"/>
      <point x="65" y="352"/>
      <point x="92" y="325"/>
    </contour>
  </outline>
</glyph>
<glyph name="ellipsis" format="2">
  <advance width="450"/>
  <unicode hex="2026"/>
  <outline>
    <contour>
      <point x="45" y="0" type="line"/>
      <point x="135" y="0" type="line"/>
      <point x="135" y="120" type="line"/>
      <point x="45" y="120" type="line"/>
    </contour>
    <contour>
      <point x="180" y="0" type="line"/>
      <point x="270" y="0" type="line"/>
      <point x="270" y="120" type="line"/>
      <point x="180" y="120" type="line"/>
    </contour>
    <contour>
      <point x="315" y="0" type="line"/>
      <point x="405" y="0" type="line"/>
      <point x="405" y="120" type="line"/>
      <point x="315" y="120" type="line"/>
    </contour>
  </outline>
</glyph>
<glyph name="guilsinglleft" format="2">
  <advance width="300"/>
  <unicode hex="2039"/>
  <outline>
    <contour>
      <point x="270.0" y="550.0" type="line"/>
      <point x="30.0" y="350.0" type="line"/>
      <point x="30.0" y="256.0" type="line"/>
      <point x="270.0" y="446.0" type="line"/>
    </contour>
    <contour>
      <point x="270.0" y="156.0" type="line"/>
      <point x="30.0" y="346.0" type="line"/>
      <point x="30.0" y="250.0" type="line"/>
      <point x="270.0" y="50.0" type="line"/>
    </contour>
  </outline>
</glyph>
<glyph name="guilsinglright" format="2">
  <advance width="300"/>
  <unicode hex="203A"/>
  <outline>
    <contour>
      <point x="30.0" y="50.0" type="line"/>
      <point x="270.0" y="250.0" type="line"/>
      <point x="270.0" y="344.0" type="line"/>
      <point x="30.0" y="154.0" type="line"/>
    </contour>
    <contour>
      <point x="30.0" y="444.0" type="line"/>
      <point x="270.0" y="254.0" type="line"/>
      <point x="270.0" y="350.0" type="line"/>
      <point x="30.0" y="550.0" type="line"/>
    </contour>
  </outline>
</glyph>
<glyph name=".notdef" format="2">
  <advance width="540"/>
  <outline>
    <contour>
      <point x="75" y="-100" type="line"/>
      <point x="465" y="-100" type="line"/>
      <point x="465" y="800" type="line"/>
      <point x="75" y="800" type="line"/>
    </contour>
    <contour>
      <point x="145" y="-10" type="line"/>
      <point x="145" y="710" type="line"/>
      <point x="395" y="710" type="line"/>
      <point x="395" y="-10" type="line"/>
    </contour>
  </outline>
</glyph>
<glyph name="acutecomb.cap" format="2">
  <anchor x="0" y="800.0" name="_top"/>
  <outline>
    <contour>
      <point x="-40" y="800" type="line"/>
      <point x="40" y="800" type="line"/>
      <point x="90" y="900" type="line"/>
      <point x="0" y="900" type="line"/>
    </contour>
  </outline>
</glyph>
<glyph name="acutecomb" format="2">
  <anchor x="0" y="600" name="_top"/>
  <outline>
    <contour>
      <point x="-40" y="660" type="line"/>
      <point x="30" y="660" type="line"/>
      <point x="110" y="800" type="line"/>
      <point x="20" y="800" type="line"/>
    </contour>
  </outline>
</glyph>
<glyph name="brevecomb.cap" format="2">
  <advance width="0"/>
  <anchor x="0" y="800" name="_top"/>
  <outline>
    <contour>
      <point x="0" y="790" type="curve" smooth="yes"/>
      <point x="80" y="790"/>
      <point x="120" y="840"/>
      <point x="120" y="900" type="curve"/>
      <point x="60" y="900" type="line"/>
      <point x="60" y="870"/>
      <point x="40" y="840"/>
      <point x="0" y="840" type="curve" smooth="yes"/>
      <point x="-40" y="840"/>
      <point x="-60" y="870"/>
      <point x="-60" y="900" type="curve"/>
      <point x="-120" y="900" type="line"/>
      <point x="-120" y="840"/>
      <point x="-80" y="790"/>
    </contour>
  </outline>
</glyph>
<glyph name="brevecomb" format="2">
  <anchor x="0" y="600" name="_top"/>
  <outline>
    <contour>
      <point x="0" y="660" type="curve" smooth="yes"/>
      <point x="80" y="660"/>
      <point x="120" y="720"/>
      <point x="120" y="800" type="curve"/>
      <point x="60" y="800" type="line"/>
      <point x="60" y="760"/>
      <point x="40" y="730"/>
      <point x="0" y="730" type="curve" smooth="yes"/>
      <point x="-40" y="730"/>
      <point x="-60" y="760"/>
      <point x="-60" y="800" type="curve"/>
      <point x="-120" y="800" type="line"/>
      <point x="-120" y="720"/>
      <point x="-80" y="660"/>
    </contour>
  </outline>
</glyph>
<glyph name="caroncomb.alt" format="2">
  <advance width="0"/>
  <anchor x="0" y="600" name="_caron.alt"/>
  <outline>
    <contour>
      <point x="40" y="660" type="line"/>
      <point x="100" y="660" type="line"/>
      <point x="160" y="800" type="line"/>
      <point x="80" y="800" type="line"/>
    </contour>
  </outline>
</glyph>
<glyph name="dieresiscomb" format="2">
  <anchor x="0" y="600" name="_top"/>
  <outline>
    <contour>
      <point x="-110" y="660" type="line"/>
      <point x="-30" y="660" type="line"/>
      <point x="-30" y="760" type="line"/>
      <point x="-110" y="760" type="line"/>
    </contour>
    <contour>
      <point x="30" y="660" type="line"/>
      <point x="110" y="660" type="line"/>
      <point x="110" y="760" type="line"/>
      <point x="30" y="760" type="line"/>
    </contour>
  </outline>
</glyph>
<glyph name="dotaccentcomb" format="2">
  <anchor x="0" y="600" name="_top"/>
  <outline>
    <contour>
      <point x="-40" y="660" type="line"/>
      <point x="40" y="660" type="line"/>
      <point x="40" y="760" type="line"/>
      <point x="-40" y="760" type="line"/>
    </contour>
  </outline>
</glyph>
<glyph name="f.short" format="2">
  <advance width="210"/>
  <outline>
    <contour>
      <point x="130" y="0" type="line"/>
      <point x="130" y="510" type="line"/>
      <point x="200" y="510" type="line"/>
      <point x="200" y="600" type="line"/>
      <point x="130" y="600" type="line"/>
      <point x="130" y="680" type="line" smooth="yes"/>
      <point x="130" y="700"/>
      <point x="140" y="710"/>
      <point x="160" y="710" type="curve" smooth="yes"/>
      <point x="200" y="710" type="line"/>
      <point x="200" y="800" type="line"/>
      <point x="150" y="800" type="line" smooth="yes"/>
      <point x="90" y="800"/>
      <point x="50" y="760"/>
      <point x="50" y="700" type="curve" smooth="yes"/>
      <point x="50" y="600" type="line"/>
      <point x="10" y="600" type="line"/>
      <point x="10" y="510" type="line"/>
      <point x="50" y="510" type="line"/>
      <point x="50" y="0" type="line"/>
    </contour>
  </outline>
</glyph>
<glyph name="hungarumlautcomb.cap" format="2">
  <anchor x="0" y="800.0" name="_top"/>
  <outline>
    <contour>
      <point x="-85" y="800" type="line"/>
      <point x="-25" y="800" type="line"/>
      <point x="30" y="900" type="line"/>
      <point x="-50" y="900" type="line"/>
    </contour>
    <contour>
      <point x="25" y="800" type="line"/>
      <point x="85" y="800" type="line"/>
      <point x="170" y="900" type="line"/>
      <point x="80" y="900" type="line"/>
    </contour>
  </outline>
</glyph>
<glyph name="hungarumlautcomb" format="2">
  <anchor x="0" y="600" name="_top"/>
  <outline>
    <contour>
      <point x="-90" y="660" type="line"/>
      <point x="-30" y="660" type="line"/>
      <point x="40" y="800" type="line"/>
      <point x="-40" y="800" type="line"/>
    </contour>
    <contour>
      <point x="20" y="660" type="line"/>
      <point x="80" y="660" type="line"/>
      <point x="180" y="800" type="line"/>
      <point x="90" y="800" type="line"/>
    </contour>
  </outline>
</glyph>
<glyph name="ijacute" format="2">
  <advance width="340"/>
  <outline>
    <contour>
      <point x="45" y="0" type="line"/>
      <point x="125" y="0" type="line"/>
      <point x="125" y="600" type="line"/>
      <point x="45" y="600" type="line"/>
    </contour>
    <contour>
      <point x="215" y="600" type="line"/>
      <point x="215" y="-80" type="line" smooth="yes"/>
      <point x="215" y="-100"/>
      <point x="205" y="-110"/>
      <point x="185" y="-110" type="curve" smooth="yes"/>
      <point x="145" y="-110" type="line"/>
      <point x="145" y="-200" type="line"/>
      <point x="195" y="-200" type="line" smooth="yes"/>
      <point x="255" y="-200"/>
      <point x="295" y="-160"/>
      <point x="295" y="-100" type="curve" smooth="yes"/>
      <point x="295" y="600" type="line"/>
    </contour>
    <contour>
      <point x="45" y="660" type="line"/>
      <point x="115" y="660" type="line"/>
      <point x="195" y="800" type="line"/>
      <point x="105" y="800" type="line"/>
    </contour>
    <contour>
      <point x="215" y="660" type="line"/>
      <point x="285" y="660" type="line"/>
      <point x="365" y="800" type="line"/>
      <point x="275" y="800" type="line"/>
    </contour>
  </outline>
</glyph>
<glyph name="macroncomb" format="2">
  <advance width="0"/>
  <anchor x="0" y="600" name="_top"/>
  <outline>
    <contour>
      <point x="-120" y="670" type="line"/>
      <point x="120" y="670" type="line"/>
      <point x="120" y="750" type="line"/>
      <point x="-120" y="750" type="line"/>
    </contour>
  </outline>
</glyph>
<glyph name="nine.tab" format="2">
  <advance width="450"/>
  <outline>
    <contour>
      <point x="345" y="360" type="line"/>
      <point x="335" y="170"/>
      <point x="290" y="90"/>
      <point x="220" y="90" type="curve" smooth="yes"/>
      <point x="150" y="90"/>
      <point x="125" y="145"/>
      <point x="115" y="220" type="curve"/>
      <point x="40" y="220" type="line"/>
      <point x="50" y="120"/>
      <point x="100" y="-10"/>
      <point x="220" y="-10" type="curve" smooth="yes"/>
      <point x="350" y="-10"/>
      <point x="420" y="140"/>
      <point x="420" y="460" type="curve" smooth="yes"/>
      <point x="420" y="680"/>
      <point x="355" y="810"/>
      <point x="225" y="810" type="curve" smooth="yes"/>
      <point x="95" y="810"/>
      <point x="30" y="680"/>
      <point x="30" y="540" type="curve" smooth="yes"/>
      <point x="30" y="400"/>
      <point x="95" y="270"/>
      <point x="215" y="270" type="curve" smooth="yes"/>
      <point x="285" y="270"/>
      <point x="321" y="320"/>
      <point x="341" y="360" type="curve"/>
    </contour>
    <contour>
      <point x="225" y="710" type="curve" smooth="yes"/>
      <point x="305" y="710"/>
      <point x="340" y="640"/>
      <point x="340" y="540" type="curve" smooth="yes"/>
      <point x="340" y="440"/>
      <point x="305" y="370"/>
      <point x="225" y="370" type="curve" smooth="yes"/>
      <point x="145" y="370"/>
      <point x="105" y="440"/>
      <point x="105" y="540" type="curve" smooth="yes"/>
      <point x="105" y="640"/>
      <point x="145" y="710"/>
    </contour>
  </outline>
</glyph>
<glyph name="ogonekcomb" format="2">
  <anchor x="0" y="0" name="_ogonek"/>
  <outline>
    <contour>
      <point x="0" y="0" type="curve"/>
      <point x="-45" y="0" type="line"/>
      <point x="-60" y="-15"/>
      <point x="-70" y="-30"/>
      <point x="-70" y="-50" type="curve" smooth="yes"/>
      <point x="-70" y="-80"/>
      <point x="-50" y="-100"/>
      <point x="-10" y="-100" type="curve" smooth="yes"/>
      <point x="10" y="-100" type="line"/>
      <point x="20" y="-50" type="line"/>
      <point x="5" y="-50" type="line" smooth="yes"/>
      <point x="-10" y="-50"/>
      <point x="-20" y="-45"/>
      <point x="-20" y="-30" type="curve" smooth="yes"/>
      <point x="-20" y="-20"/>
      <point x="-10" y="-10"/>
    </contour>
  </outline>
</glyph>
<glyph name="periodcentered.loclCAT.case" format="2">
  <outline>
    <contour>
      <point x="-145" y="380" type="line"/>
      <point x="-55" y="380" type="line"/>
      <point x="-55" y="500" type="line"/>
      <point x="-145" y="500" type="line"/>
    </contour>
  </outline>
</glyph>
<glyph name="periodcentered.loclCAT" format="2">
  <advance width="200"/>
  <outline>
    <contour>
      <point x="45" y="340" type="line"/>
      <point x="135" y="340" type="line"/>
      <point x="135" y="460" type="line"/>
      <point x="45" y="460" type="line"/>
    </contour>
  </outline>
</glyph>
<glyph name="ringcomb.cap" format="2">
  <anchor x="0" y="800.0" name="_top"/>
  <outline>
    <contour>
      <point x="0" y="705" type="curve" smooth="yes"/>
      <point x="54" y="705"/>
      <point x="90" y="746"/>
      <point x="90" y="800" type="curve" smooth="yes"/>
      <point x="90" y="854"/>
      <point x="54" y="895"/>
      <point x="0" y="895" type="curve" smooth="yes"/>
      <point x="-54" y="895"/>
      <point x="-90" y="854"/>
      <point x="-90" y="800" type="curve" smooth="yes"/>
      <point x="-90" y="746"/>
      <point x="-54" y="705"/>
    </contour>
    <contour>
      <point x="0" y="760" type="curve" smooth="yes"/>
      <point x="-24" y="760"/>
      <point x="-40" y="776"/>
      <point x="-40" y="800" type="curve" smooth="yes"/>
      <point x="-40" y="824"/>
      <point x="-24" y="840"/>
      <point x="0" y="840" type="curve" smooth="yes"/>
      <point x="24" y="840"/>
      <point x="40" y="824"/>
      <point x="40" y="800" type="curve" smooth="yes"/>
      <point x="40" y="776"/>
      <point x="24" y="760"/>
    </contour>
  </outline>
</glyph>
<glyph name="ringcomb" format="2">
  <anchor x="0" y="600" name="_top"/>
  <outline>
    <contour>
      <point x="0" y="655" type="curve" smooth="yes"/>
      <point x="54" y="655"/>
      <point x="90" y="696"/>
      <point x="90" y="750" type="curve" smooth="yes"/>
      <point x="90" y="804"/>
      <point x="54" y="845"/>
      <point x="0" y="845" type="curve" smooth="yes"/>
      <point x="-54" y="845"/>
      <point x="-90" y="804"/>
      <point x="-90" y="750" type="curve" smooth="yes"/>
      <point x="-90" y="696"/>
      <point x="-54" y="655"/>
    </contour>
    <contour>
      <point x="0" y="710" type="curve" smooth="yes"/>
      <point x="-24" y="710"/>
      <point x="-40" y="726"/>
      <point x="-40" y="750" type="curve" smooth="yes"/>
      <point x="-40" y="774"/>
      <point x="-24" y="790"/>
      <point x="0" y="790" type="curve" smooth="yes"/>
      <point x="24" y="790"/>
      <point x="40" y="774"/>
      <point x="40" y="750" type="curve" smooth="yes"/>
      <point x="40" y="726"/>
      <point x="24" y="710"/>
    </contour>
  </outline>
</glyph>
<glyph name="seven.tab" format="2">
  <advance width="450"/>
  <outline>
    <contour>
      <point x="130" y="0" type="curve"/>
      <point x="220" y="0" type="line"/>
      <point x="220" y="260"/>
      <point x="290" y="500"/>
      <point x="430" y="700" type="curve"/>
      <point x="430" y="800" type="line"/>
      <point x="20" y="800" type="line"/>
      <point x="20" y="700" type="line"/>
      <point x="400" y="700" type="line"/>
      <point x="360" y="700" type="line"/>
      <point x="220" y="500"/>
      <point x="130" y="260"/>
    </contour>
  </outline>
</glyph>
<glyph name="six.tab" format="2">
  <advance width="450"/>
  <outline>
    <contour>
      <point x="105" y="440" type="line"/>
      <point x="115" y="630"/>
      <point x="160" y="710"/>
      <point x="230" y="710" type="curve" smooth="yes"/>
      <point x="300" y="710"/>
      <point x="325" y="655"/>
      <point x="335" y="580" type="curve"/>
      <point x="410" y="580" type="line"/>
      <point x="400" y="680"/>
      <point x="350" y="810"/>
      <point x="230" y="810" type="curve" smooth="yes"/>
      <point x="100" y="810"/>
      <point x="30" y="660"/>
      <point x="30" y="340" type="curve" smooth="yes"/>
      <point x="30" y="120"/>
      <point x="95" y="-10"/>
      <point x="225" y="-10" type="curve" smooth="yes"/>
      <point x="355" y="-10"/>
      <point x="420" y="120"/>
      <point x="420" y="260" type="curve" smooth="yes"/>
      <point x="420" y="400"/>
      <point x="355" y="530"/>
      <point x="235" y="530" type="curve" smooth="yes"/>
      <point x="165" y="530"/>
      <point x="129" y="480"/>
      <point x="109" y="440" type="curve"/>
    </contour>
    <contour>
      <point x="225" y="90" type="curve" smooth="yes"/>
      <point x="145" y="90"/>
      <point x="110" y="160"/>
      <point x="110" y="260" type="curve" smooth="yes"/>
      <point x="110" y="360"/>
      <point x="145" y="430"/>
      <point x="225" y="430" type="curve" smooth="yes"/>
      <point x="305" y="430"/>
      <point x="345" y="360"/>
      <point x="345" y="260" type="curve" smooth="yes"/>
      <point x="345" y="160"/>
      <point x="305" y="90"/>
    </contour>
  </outline>
</glyph>
<glyph name="t.short" format="2">
  <advance width="210"/>
  <outline>
    <contour>
      <point x="10" y="600" type="line"/>
      <point x="10" y="510" type="line"/>
      <point x="50" y="510" type="line"/>
      <point x="50" y="100" type="line" smooth="yes"/>
      <point x="50" y="40"/>
      <point x="90" y="0"/>
      <point x="150" y="0" type="curve" smooth="yes"/>
      <point x="200" y="0" type="line"/>
      <point x="200" y="90" type="line"/>
      <point x="160" y="90" type="line" smooth="yes"/>
      <point x="140" y="90"/>
      <point x="130" y="100"/>
      <point x="130" y="120" type="curve" smooth="yes"/>
      <point x="130" y="510" type="line"/>
      <point x="200" y="510" type="line"/>
      <point x="200" y="600" type="line"/>
      <point x="130" y="600" type="line"/>
      <point x="130" y="750" type="line"/>
      <point x="50" y="750" type="line"/>
      <point x="50" y="600" type="line"/>
    </contour>
  </outline>
</glyph>
<glyph name="t_t" format="2">
  <advance width="420"/>
  <outline>
    <contour>
      <point x="10" y="600" type="line"/>
      <point x="10" y="510" type="line"/>
      <point x="60" y="510" type="line"/>
      <point x="60" y="100" type="line" smooth="yes"/>
      <point x="60" y="40"/>
      <point x="100" y="0"/>
      <point x="160" y="0" type="curve" smooth="yes"/>
      <point x="210" y="0" type="line"/>
      <point x="210" y="90" type="line"/>
      <point x="170" y="90" type="line" smooth="yes"/>
      <point x="150" y="90"/>
      <point x="140" y="100"/>
      <point x="140" y="120" type="curve" smooth="yes"/>
      <point x="140" y="510" type="line"/>
      <point x="190" y="510" type="line"/>
      <point x="190" y="600" type="line"/>
      <point x="140" y="600" type="line"/>
      <point x="140" y="750" type="line"/>
      <point x="60" y="750" type="line"/>
      <point x="60" y="600" type="line"/>
    </contour>
    <contour>
      <point x="210" y="600" type="line"/>
      <point x="210" y="510" type="line"/>
      <point x="260" y="510" type="line"/>
      <point x="260" y="100" type="line" smooth="yes"/>
      <point x="260" y="40"/>
      <point x="300" y="0"/>
      <point x="360" y="0" type="curve" smooth="yes"/>
      <point x="410" y="0" type="line"/>
      <point x="410" y="90" type="line"/>
      <point x="370" y="90" type="line" smooth="yes"/>
      <point x="350" y="90"/>
      <point x="340" y="100"/>
      <point x="340" y="120" type="curve" smooth="yes"/>
      <point x="340" y="510" type="line"/>
      <point x="410" y="510" type="line"/>
      <point x="410" y="600" type="line"/>
      <point x="340" y="600" type="line"/>
      <point x="340" y="750" type="line"/>
      <point x="260" y="750" type="line"/>
      <point x="260" y="600" type="line"/>
    </contour>
  </outline>
</glyph>
<glyph name="three.tab" format="2">
  <advance width="450"/>
  <outline>
    <contour>
      <point x="25" y="230" type="line"/>
      <point x="25" y="110"/>
      <point x="90" y="-10"/>
      <point x="220" y="-10" type="curve" smooth="yes"/>
      <point x="350" y="-10"/>
      <point x="415" y="110"/>
      <point x="415" y="220" type="curve" smooth="yes"/>
      <point x="415" y="330"/>
      <point x="350" y="450"/>
      <point x="220" y="450" type="curve"/>
      <point x="220" y="370" type="line"/>
      <point x="340" y="370"/>
      <point x="405" y="490"/>
      <point x="405" y="590" type="curve" smooth="yes"/>
      <point x="405" y="690"/>
      <point x="345" y="810"/>
      <point x="220" y="810" type="curve" smooth="yes"/>
      <point x="95" y="810"/>
      <point x="35" y="690"/>
      <point x="35" y="580" type="curve"/>
      <point x="110" y="580" type="line"/>
      <point x="110" y="655"/>
      <point x="145" y="710"/>
      <point x="220" y="710" type="curve" smooth="yes"/>
      <point x="295" y="710"/>
      <point x="330" y="655"/>
      <point x="330" y="585" type="curve" smooth="yes"/>
      <point x="330" y="515"/>
      <point x="295" y="460"/>
      <point x="220" y="460" type="curve" smooth="yes"/>
      <point x="150" y="460" type="line"/>
      <point x="150" y="360" type="line"/>
      <point x="220" y="360" type="line" smooth="yes"/>
      <point x="300" y="360"/>
      <point x="340" y="300"/>
      <point x="340" y="225" type="curve" smooth="yes"/>
      <point x="340" y="150"/>
      <point x="300" y="90"/>
      <point x="220" y="90" type="curve" smooth="yes"/>
      <point x="140" y="90"/>
      <point x="100" y="150"/>
      <point x="100" y="230" type="curve"/>
    </contour>
  </outline>
</glyph>
<glyph name="tildecomb" format="2">
  <anchor x="0" y="600" name="_top"/>
  <outline>
    <contour>
      <point x="-120" y="700" type="curve" smooth="yes"/>
      <point x="-120" y="660" type="line"/>
      <point x="-60" y="660" type="line"/>
      <point x="-60" y="700" type="line" smooth="yes"/>
      <point x="-60" y="720"/>
      <point x="-54" y="730"/>
      <point x="-40" y="730" type="curve" smooth="yes"/>
      <point x="-10" y="730"/>
      <point x="0" y="660"/>
      <point x="50" y="660" type="curve" smooth="yes"/>
      <point x="100" y="660"/>
      <point x="120" y="700"/>
      <point x="120" y="760" type="curve" smooth="yes"/>
      <point x="120" y="800" type="line"/>
      <point x="60" y="800" type="line"/>
      <point x="60" y="760" type="line" smooth="yes"/>
      <point x="60" y="740"/>
      <point x="54" y="730"/>
      <point x="40" y="730" type="curve" smooth="yes"/>
      <point x="10" y="730"/>
      <point x="0" y="800"/>
      <point x="-50" y="800" type="curve" smooth="yes"/>
      <point x="-100" y="800"/>
      <point x="-120" y="760"/>
    </contour>
  </outline>
</glyph>
<glyph name="zero.tab" format="2">
  <advance width="450"/>
  <outline>
    <contour>
      <point x="35" y="400" type="curve" smooth="yes"/>
      <point x="35" y="150"/>
      <point x="100" y="-10"/>
      <point x="225" y="-10" type="curve" smooth="yes"/>
      <point x="350" y="-10"/>
      <point x="415" y="150"/>
      <point x="415" y="400" type="curve" smooth="yes"/>
      <point x="415" y="650"/>
      <point x="350" y="810"/>
      <point x="225" y="810" type="curve" smooth="yes"/>
      <point x="100" y="810"/>
      <point x="35" y="650"/>
    </contour>
    <contour>
      <point x="110" y="400" type="curve" smooth="yes"/>
      <point x="110" y="600"/>
      <point x="150" y="710"/>
      <point x="225" y="710" type="curve" smooth="yes"/>
      <point x="300" y="710"/>
      <point x="340" y="600"/>
      <point x="340" y="400" type="curve" smooth="yes"/>
      <point x="340" y="200"/>
      <point x="300" y="90"/>
      <point x="225" y="90" type="curve" smooth="yes"/>
      <point x="150" y="90"/>
      <point x="110" y="200"/>
    </contour>
  </outline>
</glyph>
